<?xml version="1.0" encoding="UTF-8" standalone="no"?>
<!-- Created with Inkscape (http://www.inkscape.org/) -->

<svg
   xmlns:dc="http://purl.org/dc/elements/1.1/"
   xmlns:cc="http://creativecommons.org/ns#"
   xmlns:rdf="http://www.w3.org/1999/02/22-rdf-syntax-ns#"
   xmlns:svg="http://www.w3.org/2000/svg"
   xmlns="http://www.w3.org/2000/svg"
   xmlns:sodipodi="http://sodipodi.sourceforge.net/DTD/sodipodi-0.dtd"
   xmlns:inkscape="http://www.inkscape.org/namespaces/inkscape"
   width="600mm"
   height="300mm"
   viewBox="0 0 600 300"
   version="1.1"
   id="svg996"
   sodipodi:docname="terachess_board_play_side_black.svg"
   inkscape:version="0.92.2 (unknown)">
  <defs
     id="defs990" />
  <sodipodi:namedview
     id="base"
     pagecolor="#ffffff"
     bordercolor="#666666"
     borderopacity="1.0"
     inkscape:pageopacity="0.0"
     inkscape:pageshadow="2"
     inkscape:zoom="0.35355339"
     inkscape:cx="1008.983"
     inkscape:cy="771.45342"
     inkscape:document-units="mm"
     inkscape:current-layer="layer1"
     showgrid="false"
     inkscape:window-width="1325"
     inkscape:window-height="744"
     inkscape:window-x="41"
     inkscape:window-y="24"
     inkscape:window-maximized="1"
     inkscape:measure-start="0,0"
     inkscape:measure-end="0,0" />
  <metadata
     id="metadata993">
    <rdf:RDF>
      <cc:Work
         rdf:about="">
        <dc:format>image/svg+xml</dc:format>
        <dc:type
           rdf:resource="http://purl.org/dc/dcmitype/StillImage" />
        <dc:title></dc:title>
      </cc:Work>
    </rdf:RDF>
  </metadata>
  <g
     inkscape:groupmode="layer"
     id="layer3"
     inkscape:label="background"
     transform="translate(0,-300)" />
  <g
     inkscape:label="Layer 1"
     inkscape:groupmode="layer"
     id="layer1"
     transform="translate(0,3)">
    <g
       aria-label="P         O        N        M        L         K        J         I         H         G         F         E        D        C        B        A"
       style="font-style:normal;font-weight:normal;font-size:10.58333302px;line-height:1.25;font-family:sans-serif;letter-spacing:0px;word-spacing:0px;fill:#000000;fill-opacity:1;stroke:none;stroke-width:0.26458332"
       id="text6089">
      <path
         d="m 32.166894,283.42382 v 2.89905 h 1.312581 q 0.728638,0 1.126546,-0.37724 0.397909,-0.37724 0.397909,-1.07487 0,-0.69247 -0.397909,-1.0697 -0.397908,-0.37724 -1.126546,-0.37724 z m -1.043864,-0.85783 h 2.356445 q 1.297078,0 1.958537,0.58911 0.666626,0.58394 0.666626,1.71566 0,1.14205 -0.666626,1.72599 -0.661459,0.58394 -1.958537,0.58394 h -1.312581 v 3.10059 H 31.12303 Z"
         style="stroke-width:0.26458332"
         id="path10437" />
      <path
         d="m 70.965559,283.27396 q -1.136882,0 -1.808675,0.84749 -0.666626,0.84749 -0.666626,2.30994 0,1.45727 0.666626,2.30477 0.671793,0.84749 1.808675,0.84749 1.136881,0 1.79834,-0.84749 0.666626,-0.8475 0.666626,-2.30477 0,-1.46245 -0.666626,-2.30994 -0.661459,-0.84749 -1.79834,-0.84749 z m 0,-0.8475 q 1.62264,0 2.594157,1.09038 0.971517,1.0852 0.971517,2.91455 0,1.82417 -0.971517,2.91455 -0.971517,1.0852 -2.594157,1.0852 -1.627808,0 -2.604492,-1.0852 -0.971517,-1.08521 -0.971517,-2.91455 0,-1.82935 0.971517,-2.91455 0.976684,-1.09038 2.604492,-1.09038 z"
         style="stroke-width:0.26458332"
         id="path10439" />
      <path
         d="m 103.11864,282.56599 h 1.40559 l 3.42098,6.45439 v -6.45439 h 1.01286 v 7.71529 h -1.4056 l -3.42098,-6.45439 v 6.45439 h -1.01285 z"
         style="stroke-width:0.26458332"
         id="path10441" />
      <path
         d="m 137.98989,282.56599 h 1.55546 l 1.96887,5.25032 1.97921,-5.25032 h 1.55546 v 7.71529 h -1.01803 v -6.77478 l -1.98954,5.29167 h -1.04903 l -1.98954,-5.29167 v 6.77478 h -1.01286 z"
         style="stroke-width:0.26458332"
         id="path10443" />
      <path
         d="m 174.0807,282.56599 h 1.04387 v 6.83679 h 3.75687 v 0.8785 h -4.80074 z"
         style="stroke-width:0.26458332"
         id="path10445" />
      <path
         d="m 210.29555,282.56599 h 1.04386 v 3.26078 l 3.46232,-3.26078 h 1.34359 l -3.82923,3.59668 4.10311,4.11861 h -1.37459 l -3.7052,-3.71553 v 3.71553 h -1.04386 z"
         style="stroke-width:0.26458332"
         id="path10447" />
      <path
         d="m 244.19528,282.56599 h 1.04386 v 7.17786 q 0,1.39526 -0.53226,2.02571 -0.5271,0.63045 -1.70016,0.63045 h -0.39791 v -0.8785 h 0.32557 q 0.69246,0 0.97668,-0.38757 0.28422,-0.38757 0.28422,-1.39009 z"
         style="stroke-width:0.26458332"
         id="path10449" />
      <path
         d="m 277.64027,282.56599 h 1.04387 v 7.71529 h -1.04387 z"
         style="stroke-width:0.26458332"
         id="path10451" />
      <path
         d="m 311.08525,282.56599 h 1.04386 v 3.1626 h 3.79305 v -3.1626 h 1.04387 v 7.71529 h -1.04387 v -3.67419 h -3.79305 v 3.67419 h -1.04386 z"
         style="stroke-width:0.26458332"
         id="path10453" />
      <path
         d="m 354.62783,289.18057 v -2.07222 h -1.70532 v -0.85783 h 2.73885 v 3.31246 q -0.60461,0.42891 -1.33325,0.65112 -0.72864,0.21704 -1.55546,0.21704 -1.80868,0 -2.83187,-1.0542 -1.01803,-1.05936 -1.01803,-2.94555 0,-1.89136 1.01803,-2.94556 1.02319,-1.05937 2.83187,-1.05937 0.75447,0 1.43143,0.18604 0.68213,0.18603 1.25574,0.54777 v 1.11104 q -0.57877,-0.49092 -1.2299,-0.73897 -0.65112,-0.24805 -1.36942,-0.24805 -1.41594,0 -2.12907,0.79065 -0.70797,0.79065 -0.70797,2.35645 0,1.56062 0.70797,2.35127 0.71313,0.79065 2.12907,0.79065 0.55293,0 0.98702,-0.093 0.43408,-0.0982 0.78031,-0.29973 z"
         style="stroke-width:0.26458332"
         id="path10455" />
      <path
         d="m 387.89711,282.56599 h 4.43384 v 0.8785 h -3.38998 v 2.27376 h 3.05925 v 0.8785 h -3.05925 v 3.68453 h -1.04386 z"
         style="stroke-width:0.26458332"
         id="path10457" />
      <path
         d="m 424.31865,282.56599 h 4.87825 v 0.8785 h -3.83439 v 2.2841 h 3.6742 v 0.8785 h -3.6742 v 2.79569 h 3.92741 v 0.8785 h -4.97127 z"
         style="stroke-width:0.26458332"
         id="path10459" />
      <path
         d="m 459.01421,283.42382 v 5.99963 h 1.26091 q 1.5968,0 2.33577,-0.72347 0.74414,-0.72347 0.74414,-2.2841 0,-1.55029 -0.74414,-2.26859 -0.73897,-0.72347 -2.33577,-0.72347 z m -1.04386,-0.85783 h 2.14457 q 2.24276,0 3.29179,0.93534 1.04903,0.93018 1.04903,2.91455 0,1.99471 -1.0542,2.93006 -1.0542,0.93534 -3.28662,0.93534 h -2.14457 z"
         style="stroke-width:0.26458332"
         id="path10461" />
      <path
         d="m 498.84641,283.16027 v 1.10071 q -0.5271,-0.49093 -1.12655,-0.73381 -0.59428,-0.24288 -1.26607,-0.24288 -1.32292,0 -2.02572,0.81132 -0.7028,0.80615 -0.7028,2.33578 0,1.52445 0.7028,2.33577 0.7028,0.80615 2.02572,0.80615 0.67179,0 1.26607,-0.24288 0.59945,-0.24288 1.12655,-0.7338 v 1.09037 q -0.54777,0.37207 -1.16272,0.55811 -0.60978,0.18603 -1.29191,0.18603 -1.75183,0 -2.75952,-1.0697 -1.00769,-1.07487 -1.00769,-2.93005 0,-1.86036 1.00769,-2.93006 1.00769,-1.07487 2.75952,-1.07487 0.69246,0 1.30224,0.18604 0.61495,0.18087 1.15239,0.54777 z"
         style="stroke-width:0.26458332"
         id="path10463" />
      <path
         d="m 528.46734,286.59675 v 2.8267 h 1.67432 q 0.84232,0 1.2454,-0.34623 0.40824,-0.3514 0.40824,-1.0697 0,-0.72347 -0.40824,-1.06454 -0.40308,-0.34623 -1.2454,-0.34623 z m 0,-3.17293 v 2.32544 h 1.54512 q 0.76482,0 1.13689,-0.28422 0.37723,-0.28939 0.37723,-0.8785 0,-0.58395 -0.37723,-0.87333 -0.37207,-0.28939 -1.13689,-0.28939 z m -1.04386,-0.85783 h 2.6665 q 1.19372,0 1.83968,0.49609 0.64596,0.4961 0.64596,1.41077 0,0.70797 -0.33073,1.12655 -0.33073,0.41857 -0.97152,0.52193 0.76998,0.16536 1.19372,0.69246 0.42892,0.52193 0.42892,1.30742 0,1.03352 -0.7028,1.5968 -0.7028,0.56327 -1.99988,0.56327 h -2.76985 z"
         style="stroke-width:0.26458332"
         id="path10465" />
      <path
         d="m 564.21194,283.59435 -1.41594,3.83956 h 2.83704 z m -0.58911,-1.02836 h 1.18339 l 2.94039,7.71529 h -1.08521 l -0.7028,-1.97921 h -3.47782 l -0.7028,1.97921 h -1.10071 z"
         style="stroke-width:0.26458332"
         id="path10467" />
    </g>
    <text
       xml:space="preserve"
       style="font-style:normal;font-weight:normal;font-size:10.58333302px;line-height:1.25;font-family:sans-serif;letter-spacing:0px;word-spacing:0px;fill:#000000;fill-opacity:1;stroke:none;stroke-width:0.26458332"
       x="7.6237626"
       y="16.254145"
       id="text6093"><tspan
         sodipodi:role="line"
         x="7.6237626"
         y="16.254145"
         style="stroke-width:0.26458332"
         id="tspan6099">9</tspan></text>
    <text
       id="text6109"
       y="52.648659"
       x="4.4165483"
       style="font-style:normal;font-weight:normal;font-size:10.58333302px;line-height:1.25;font-family:sans-serif;letter-spacing:0px;word-spacing:0px;fill:#000000;fill-opacity:1;stroke:none;stroke-width:0.26458332"
       xml:space="preserve"
       inkscape:transform-center-x="13.363476"
       inkscape:transform-center-y="-0.53454363"><tspan
         id="tspan6107"
         style="stroke-width:0.26458332"
         y="52.648659"
         x="4.4165483"
         sodipodi:role="line">10</tspan></text>
    <text
       inkscape:transform-center-y="-0.53454363"
       inkscape:transform-center-x="13.363476"
       xml:space="preserve"
       style="font-style:normal;font-weight:normal;font-size:10.58333302px;line-height:1.25;font-family:sans-serif;letter-spacing:0px;word-spacing:0px;fill:#000000;fill-opacity:1;stroke:none;stroke-width:0.26458332"
       x="4.4165483"
       y="87.393692"
       id="text6113"><tspan
         sodipodi:role="line"
         x="4.4165483"
         y="87.393692"
         style="stroke-width:0.26458332"
         id="tspan6111">11</tspan></text>
    <text
       id="text6117"
       y="122.406"
       x="4.4165483"
       style="font-style:normal;font-weight:normal;font-size:10.58333302px;line-height:1.25;font-family:sans-serif;letter-spacing:0px;word-spacing:0px;fill:#000000;fill-opacity:1;stroke:none;stroke-width:0.26458332"
       xml:space="preserve"
       inkscape:transform-center-x="13.363476"
       inkscape:transform-center-y="-0.53454363"><tspan
         id="tspan6115"
         style="stroke-width:0.26458332"
         y="122.406"
         x="4.4165483"
         sodipodi:role="line">12</tspan></text>
    <text
       inkscape:transform-center-y="-0.53454363"
       inkscape:transform-center-x="13.363476"
       xml:space="preserve"
       style="font-style:normal;font-weight:normal;font-size:10.58333302px;line-height:1.25;font-family:sans-serif;letter-spacing:0px;word-spacing:0px;fill:#000000;fill-opacity:1;stroke:none;stroke-width:0.26458332"
       x="4.1492753"
       y="193.89667"
       id="text6121"><tspan
         sodipodi:role="line"
         x="4.1492753"
         y="193.89667"
         style="stroke-width:0.26458332"
         id="tspan6119">14</tspan></text>
    <text
       id="text6125"
       y="159.95345"
       x="4.1951127"
       style="font-style:normal;font-weight:normal;font-size:10.58333302px;line-height:1.25;font-family:sans-serif;letter-spacing:0px;word-spacing:0px;fill:#000000;fill-opacity:1;stroke:none;stroke-width:0.26458332"
       xml:space="preserve"
       inkscape:transform-center-x="13.363476"
       inkscape:transform-center-y="-0.53454363"><tspan
         id="tspan6123"
         style="stroke-width:0.26458332"
         y="159.95345"
         x="4.1951127"
         sodipodi:role="line">13</tspan></text>
    <text
       id="text6129"
       y="228.7793"
       x="4.4165483"
       style="font-style:normal;font-weight:normal;font-size:10.58333302px;line-height:1.25;font-family:sans-serif;letter-spacing:0px;word-spacing:0px;fill:#000000;fill-opacity:1;stroke:none;stroke-width:0.26458332"
       xml:space="preserve"
       inkscape:transform-center-x="13.363476"
       inkscape:transform-center-y="-0.53454363"><tspan
         id="tspan6127"
         style="stroke-width:0.26458332"
         y="228.7793"
         x="4.4165483"
         sodipodi:role="line">15</tspan></text>
    <text
       inkscape:transform-center-y="-0.53454363"
       inkscape:transform-center-x="13.363476"
       xml:space="preserve"
       style="font-style:normal;font-weight:normal;font-size:10.58333302px;line-height:1.25;font-family:sans-serif;letter-spacing:0px;word-spacing:0px;fill:#000000;fill-opacity:1;stroke:none;stroke-width:0.26458332"
       x="4.1492753"
       y="264.59341"
       id="text6133"><tspan
         sodipodi:role="line"
         x="4.1492753"
         y="264.59341"
         style="stroke-width:0.26458332"
         id="tspan6131">16</tspan></text>
    <text
       xml:space="preserve"
       style="font-style:normal;font-weight:normal;font-size:10.58333302px;line-height:1.25;font-family:sans-serif;letter-spacing:0px;word-spacing:0px;fill:#000000;fill-opacity:1;stroke:none;stroke-width:0.26458332"
       x="-590.41785"
       y="-9.7970848"
       id="text6137"
       transform="scale(-1)"><tspan
         sodipodi:role="line"
         id="tspan6135"
         x="-590.41785"
         y="-9.7970848"
         style="stroke-width:0.26458332">9</tspan></text>
    <text
       transform="scale(-1)"
       id="text6141"
       y="-44.948868"
       x="-594.69415"
       style="font-style:normal;font-weight:normal;font-size:10.58333302px;line-height:1.25;font-family:sans-serif;letter-spacing:0px;word-spacing:0px;fill:#000000;fill-opacity:1;stroke:none;stroke-width:0.26458332"
       xml:space="preserve"><tspan
         style="stroke-width:0.26458332"
         y="-44.948868"
         x="-594.69415"
         id="tspan6139"
         sodipodi:role="line">10</tspan></text>
    <text
       xml:space="preserve"
       style="font-style:normal;font-weight:normal;font-size:10.58333302px;line-height:1.25;font-family:sans-serif;letter-spacing:0px;word-spacing:0px;fill:#000000;fill-opacity:1;stroke:none;stroke-width:0.26458332"
       x="-594.85071"
       y="-80.47863"
       id="text6145"
       transform="scale(-1)"><tspan
         sodipodi:role="line"
         id="tspan6143"
         x="-594.85071"
         y="-80.47863"
         style="stroke-width:0.26458332">11</tspan></text>
    <text
       transform="scale(-1)"
       id="text6149"
       y="-116.38638"
       x="-594.31616"
       style="font-style:normal;font-weight:normal;font-size:10.58333302px;line-height:1.25;font-family:sans-serif;letter-spacing:0px;word-spacing:0px;fill:#000000;fill-opacity:1;stroke:none;stroke-width:0.26458332"
       xml:space="preserve"><tspan
         style="stroke-width:0.26458332"
         y="-116.38638"
         x="-594.31616"
         id="tspan6147"
         sodipodi:role="line">12</tspan></text>
    <text
       xml:space="preserve"
       style="font-style:normal;font-weight:normal;font-size:10.58333302px;line-height:1.25;font-family:sans-serif;letter-spacing:0px;word-spacing:0px;fill:#000000;fill-opacity:1;stroke:none;stroke-width:0.26458332"
       x="-594.15961"
       y="-150.62564"
       id="text6153"
       transform="scale(-1)"><tspan
         sodipodi:role="line"
         id="tspan6151"
         x="-594.15961"
         y="-150.62564"
         style="stroke-width:0.26458332">13</tspan></text>
    <text
       transform="scale(-1)"
       id="text6157"
       y="-185.93399"
       x="-594.31616"
       style="font-style:normal;font-weight:normal;font-size:10.58333302px;line-height:1.25;font-family:sans-serif;letter-spacing:0px;word-spacing:0px;fill:#000000;fill-opacity:1;stroke:none;stroke-width:0.26458332"
       xml:space="preserve"><tspan
         style="stroke-width:0.26458332"
         y="-185.93399"
         x="-594.31616"
         id="tspan6155"
         sodipodi:role="line">14</tspan></text>
    <text
       xml:space="preserve"
       style="font-style:normal;font-weight:normal;font-size:10.58333302px;line-height:1.25;font-family:sans-serif;letter-spacing:0px;word-spacing:0px;fill:#000000;fill-opacity:1;stroke:none;stroke-width:0.26458332"
       x="-593.93817"
       y="-221.46375"
       id="text6161"
       transform="scale(-1)"><tspan
         sodipodi:role="line"
         id="tspan6159"
         x="-593.93817"
         y="-221.46375"
         style="stroke-width:0.26458332">15</tspan></text>
    <text
       transform="scale(-1)"
       id="text6165"
       y="-256.9935"
       x="-594.20544"
       style="font-style:normal;font-weight:normal;font-size:10.58333302px;line-height:1.25;font-family:sans-serif;letter-spacing:0px;word-spacing:0px;fill:#000000;fill-opacity:1;stroke:none;stroke-width:0.26458332"
       xml:space="preserve"><tspan
         style="stroke-width:0.26458332"
         y="-256.9935"
         x="-594.20544"
         id="tspan6163"
         sodipodi:role="line">16</tspan></text>
    <rect
       id="rect998"
       width="35"
       height="35"
       x="-2.8114483"
       y="-579.88971"
       style="stroke:#000000;stroke-width:0.26458332;stroke-opacity:1"
       transform="rotate(90)" />
    <rect
       style="fill:#ffffff;fill-opacity:1;stroke:#000000;stroke-width:0.26458332;stroke-opacity:1"
       y="-544.88971"
       x="-2.8114483"
       height="35"
       width="35"
       id="rect1000"
       transform="rotate(90)" />
    <rect
       style="stroke:#000000;stroke-width:0.26458332;stroke-opacity:1"
       y="-544.88971"
       x="32.188557"
       height="35"
       width="35"
       id="rect1807"
       transform="rotate(90)" />
    <rect
       id="rect1809"
       width="35"
       height="35"
       x="32.188557"
       y="-579.88971"
       style="fill:#fffffb;fill-opacity:1;stroke:#000000;stroke-width:0.26458332;stroke-opacity:1"
       transform="rotate(90)" />
    <rect
       style="stroke:#000000;stroke-width:0.26458332;stroke-opacity:1"
       y="-579.88971"
       x="-2.8114483"
       height="35"
       width="35"
       id="rect4438"
       transform="rotate(90)" />
    <rect
       id="rect4440"
       width="35"
       height="35"
       x="-2.8114483"
       y="-544.88971"
       style="fill:#ffffff;fill-opacity:1;stroke:#000000;stroke-width:0.26458332;stroke-opacity:1"
       transform="rotate(90)" />
    <rect
       id="rect4442"
       width="35"
       height="35"
       x="32.188557"
       y="-544.88971"
       style="stroke:#000000;stroke-width:0.26458332;stroke-opacity:1"
       transform="rotate(90)" />
    <rect
       style="fill:#fffffb;fill-opacity:1;stroke:#000000;stroke-width:0.26458332;stroke-opacity:1"
       y="-579.88971"
       x="32.188557"
       height="35"
       width="35"
       id="rect4444"
       transform="rotate(90)" />
    <rect
       style="stroke:#000000;stroke-width:0.26458332;stroke-opacity:1"
       y="-509.62515"
       x="-2.8114483"
       height="35"
       width="35"
       id="rect4428"
       transform="rotate(90)" />
    <rect
       id="rect4430"
       width="35"
       height="35"
       x="-2.8114483"
       y="-474.62515"
       style="fill:#ffffff;fill-opacity:1;stroke:#000000;stroke-width:0.26458332;stroke-opacity:1"
       transform="rotate(90)" />
    <rect
       id="rect4432"
       width="35"
       height="35"
       x="32.188557"
       y="-474.62515"
       style="stroke:#000000;stroke-width:0.26458332;stroke-opacity:1"
       transform="rotate(90)" />
    <rect
       style="fill:#fffffb;fill-opacity:1;stroke:#000000;stroke-width:0.26458332;stroke-opacity:1"
       y="-509.62515"
       x="32.188557"
       height="35"
       width="35"
       id="rect4434"
       transform="rotate(90)" />
    <rect
       style="stroke:#000000;stroke-width:0.26458332;stroke-opacity:1"
       y="-439.36057"
       x="-2.8114483"
       height="35"
       width="35"
       id="rect4418"
       transform="rotate(90)" />
    <rect
       id="rect4420"
       width="35"
       height="35"
       x="-2.8114483"
       y="-404.36057"
       style="fill:#ffffff;fill-opacity:1;stroke:#000000;stroke-width:0.26458332;stroke-opacity:1"
       transform="rotate(90)" />
    <rect
       id="rect4422"
       width="35"
       height="35"
       x="32.188557"
       y="-404.36057"
       style="stroke:#000000;stroke-width:0.26458332;stroke-opacity:1"
       transform="rotate(90)" />
    <rect
       style="fill:#fffffb;fill-opacity:1;stroke:#000000;stroke-width:0.26458332;stroke-opacity:1"
       y="-439.36057"
       x="32.188557"
       height="35"
       width="35"
       id="rect4424"
       transform="rotate(90)" />
    <rect
       style="stroke:#000000;stroke-width:0.26458332;stroke-opacity:1"
       y="-369.09598"
       x="-2.8114483"
       height="35"
       width="35"
       id="rect4408"
       transform="rotate(90)" />
    <rect
       id="rect4410"
       width="35"
       height="35"
       x="-2.8114483"
       y="-334.09598"
       style="fill:#ffffff;fill-opacity:1;stroke:#000000;stroke-width:0.26458332;stroke-opacity:1"
       transform="rotate(90)" />
    <rect
       id="rect4412"
       width="35"
       height="35"
       x="32.188557"
       y="-334.09598"
       style="stroke:#000000;stroke-width:0.26458332;stroke-opacity:1"
       transform="rotate(90)" />
    <rect
       style="fill:#fffffb;fill-opacity:1;stroke:#000000;stroke-width:0.26458332;stroke-opacity:1"
       y="-369.09598"
       x="32.188557"
       height="35"
       width="35"
       id="rect4414"
       transform="rotate(90)" />
    <rect
       style="stroke:#000000;stroke-width:0.26458332;stroke-opacity:1"
       y="-298.83139"
       x="-2.8114483"
       height="35"
       width="35"
       id="rect4398"
       transform="rotate(90)" />
    <rect
       id="rect4400"
       width="35"
       height="35"
       x="-2.8114483"
       y="-263.83139"
       style="fill:#ffffff;fill-opacity:1;stroke:#000000;stroke-width:0.26458332;stroke-opacity:1"
       transform="rotate(90)" />
    <rect
       id="rect4402"
       width="35"
       height="35"
       x="32.188557"
       y="-263.83139"
       style="stroke:#000000;stroke-width:0.26458332;stroke-opacity:1"
       transform="rotate(90)" />
    <rect
       style="fill:#fffffb;fill-opacity:1;stroke:#000000;stroke-width:0.26458332;stroke-opacity:1"
       y="-298.83139"
       x="32.188557"
       height="35"
       width="35"
       id="rect4404"
       transform="rotate(90)" />
    <rect
       style="stroke:#000000;stroke-width:0.26458332;stroke-opacity:1"
       y="-228.56682"
       x="-2.8114483"
       height="35"
       width="35"
       id="rect4388"
       transform="rotate(90)" />
    <rect
       id="rect4390"
       width="35"
       height="35"
       x="-2.8114483"
       y="-193.56683"
       style="fill:#ffffff;fill-opacity:1;stroke:#000000;stroke-width:0.26458332;stroke-opacity:1"
       transform="rotate(90)" />
    <rect
       id="rect4392"
       width="35"
       height="35"
       x="32.188557"
       y="-193.56683"
       style="stroke:#000000;stroke-width:0.26458332;stroke-opacity:1"
       transform="rotate(90)" />
    <rect
       style="fill:#fffffb;fill-opacity:1;stroke:#000000;stroke-width:0.26458332;stroke-opacity:1"
       y="-228.56682"
       x="32.188557"
       height="35"
       width="35"
       id="rect4394"
       transform="rotate(90)" />
    <rect
       style="stroke:#000000;stroke-width:0.26458332;stroke-opacity:1"
       y="-158.30223"
       x="-2.8114483"
       height="35"
       width="35"
       id="rect4378"
       transform="rotate(90)" />
    <rect
       id="rect4380"
       width="35"
       height="35"
       x="-2.8114483"
       y="-123.30224"
       style="fill:#ffffff;fill-opacity:1;stroke:#000000;stroke-width:0.26458332;stroke-opacity:1"
       transform="rotate(90)" />
    <rect
       id="rect4382"
       width="35"
       height="35"
       x="32.188557"
       y="-123.30224"
       style="stroke:#000000;stroke-width:0.26458332;stroke-opacity:1"
       transform="rotate(90)" />
    <rect
       style="fill:#fffffb;fill-opacity:1;stroke:#000000;stroke-width:0.26458332;stroke-opacity:1"
       y="-158.30223"
       x="32.188557"
       height="35"
       width="35"
       id="rect4384"
       transform="rotate(90)" />
    <rect
       style="stroke:#000000;stroke-width:0.26458332;stroke-opacity:1"
       y="-88.037651"
       x="-2.8114483"
       height="35"
       width="35"
       id="rect4368"
       transform="rotate(90)" />
    <rect
       id="rect4370"
       width="35"
       height="35"
       x="-2.8114483"
       y="-53.037651"
       style="fill:#ffffff;fill-opacity:1;stroke:#000000;stroke-width:0.26458332;stroke-opacity:1"
       transform="rotate(90)" />
    <rect
       id="rect4372"
       width="35"
       height="35"
       x="32.188557"
       y="-53.037651"
       style="stroke:#000000;stroke-width:0.26458332;stroke-opacity:1"
       transform="rotate(90)" />
    <rect
       style="fill:#fffffb;fill-opacity:1;stroke:#000000;stroke-width:0.26458332;stroke-opacity:1"
       y="-88.037651"
       x="32.188557"
       height="35"
       width="35"
       id="rect4374"
       transform="rotate(90)" />
    <rect
       style="stroke:#000000;stroke-width:0.26458332;stroke-opacity:1"
       y="-579.88971"
       x="67.45314"
       height="35"
       width="35"
       id="rect4358"
       transform="rotate(90)" />
    <rect
       id="rect4360"
       width="35"
       height="35"
       x="67.45314"
       y="-544.88971"
       style="fill:#ffffff;fill-opacity:1;stroke:#000000;stroke-width:0.26458332;stroke-opacity:1"
       transform="rotate(90)" />
    <rect
       id="rect4362"
       width="35"
       height="35"
       x="102.45315"
       y="-544.88971"
       style="stroke:#000000;stroke-width:0.26458332;stroke-opacity:1"
       transform="rotate(90)" />
    <rect
       style="fill:#fffffb;fill-opacity:1;stroke:#000000;stroke-width:0.26458332;stroke-opacity:1"
       y="-579.88971"
       x="102.45315"
       height="35"
       width="35"
       id="rect4364"
       transform="rotate(90)" />
    <rect
       style="stroke:#000000;stroke-width:0.26458332;stroke-opacity:1"
       y="-509.62515"
       x="67.45314"
       height="35"
       width="35"
       id="rect4348"
       transform="rotate(90)" />
    <rect
       id="rect4350"
       width="35"
       height="35"
       x="67.45314"
       y="-474.62515"
       style="fill:#ffffff;fill-opacity:1;stroke:#000000;stroke-width:0.26458332;stroke-opacity:1"
       transform="rotate(90)" />
    <rect
       id="rect4352"
       width="35"
       height="35"
       x="102.45315"
       y="-474.62515"
       style="stroke:#000000;stroke-width:0.26458332;stroke-opacity:1"
       transform="rotate(90)" />
    <rect
       style="fill:#fffffb;fill-opacity:1;stroke:#000000;stroke-width:0.26458332;stroke-opacity:1"
       y="-509.62515"
       x="102.45315"
       height="35"
       width="35"
       id="rect4354"
       transform="rotate(90)" />
    <rect
       style="stroke:#000000;stroke-width:0.26458332;stroke-opacity:1"
       y="-439.36057"
       x="67.45314"
       height="35"
       width="35"
       id="rect4338"
       transform="rotate(90)" />
    <rect
       id="rect4340"
       width="35"
       height="35"
       x="67.45314"
       y="-404.36057"
       style="fill:#ffffff;fill-opacity:1;stroke:#000000;stroke-width:0.26458332;stroke-opacity:1"
       transform="rotate(90)" />
    <rect
       id="rect4342"
       width="35"
       height="35"
       x="102.45315"
       y="-404.36057"
       style="stroke:#000000;stroke-width:0.26458332;stroke-opacity:1"
       transform="rotate(90)" />
    <rect
       style="fill:#fffffb;fill-opacity:1;stroke:#000000;stroke-width:0.26458332;stroke-opacity:1"
       y="-439.36057"
       x="102.45315"
       height="35"
       width="35"
       id="rect4344"
       transform="rotate(90)" />
    <rect
       style="stroke:#000000;stroke-width:0.26458332;stroke-opacity:1"
       y="-369.09598"
       x="67.45314"
       height="35"
       width="35"
       id="rect4328"
       transform="rotate(90)" />
    <rect
       id="rect4330"
       width="35"
       height="35"
       x="67.45314"
       y="-334.09598"
       style="fill:#ffffff;fill-opacity:1;stroke:#000000;stroke-width:0.26458332;stroke-opacity:1"
       transform="rotate(90)" />
    <rect
       id="rect4332"
       width="35"
       height="35"
       x="102.45315"
       y="-334.09598"
       style="stroke:#000000;stroke-width:0.26458332;stroke-opacity:1"
       transform="rotate(90)" />
    <rect
       style="fill:#fffffb;fill-opacity:1;stroke:#000000;stroke-width:0.26458332;stroke-opacity:1"
       y="-369.09598"
       x="102.45315"
       height="35"
       width="35"
       id="rect4334"
       transform="rotate(90)" />
    <rect
       style="stroke:#000000;stroke-width:0.26458332;stroke-opacity:1"
       y="-298.83139"
       x="67.45314"
       height="35"
       width="35"
       id="rect4318"
       transform="rotate(90)" />
    <rect
       id="rect4320"
       width="35"
       height="35"
       x="67.45314"
       y="-263.83139"
       style="fill:#ffffff;fill-opacity:1;stroke:#000000;stroke-width:0.26458332;stroke-opacity:1"
       transform="rotate(90)" />
    <rect
       id="rect4322"
       width="35"
       height="35"
       x="102.45315"
       y="-263.83139"
       style="stroke:#000000;stroke-width:0.26458332;stroke-opacity:1"
       transform="rotate(90)" />
    <rect
       style="fill:#fffffb;fill-opacity:1;stroke:#000000;stroke-width:0.26458332;stroke-opacity:1"
       y="-298.83139"
       x="102.45315"
       height="35"
       width="35"
       id="rect4324"
       transform="rotate(90)" />
    <rect
       style="stroke:#000000;stroke-width:0.26458332;stroke-opacity:1"
       y="-228.56682"
       x="67.45314"
       height="35"
       width="35"
       id="rect4308"
       transform="rotate(90)" />
    <rect
       id="rect4310"
       width="35"
       height="35"
       x="67.45314"
       y="-193.56683"
       style="fill:#ffffff;fill-opacity:1;stroke:#000000;stroke-width:0.26458332;stroke-opacity:1"
       transform="rotate(90)" />
    <rect
       id="rect4312"
       width="35"
       height="35"
       x="102.45315"
       y="-193.56683"
       style="stroke:#000000;stroke-width:0.26458332;stroke-opacity:1"
       transform="rotate(90)" />
    <rect
       style="fill:#fffffb;fill-opacity:1;stroke:#000000;stroke-width:0.26458332;stroke-opacity:1"
       y="-228.56682"
       x="102.45315"
       height="35"
       width="35"
       id="rect4314"
       transform="rotate(90)" />
    <rect
       style="stroke:#000000;stroke-width:0.26458332;stroke-opacity:1"
       y="-158.30223"
       x="67.45314"
       height="35"
       width="35"
       id="rect4298"
       transform="rotate(90)" />
    <rect
       id="rect4300"
       width="35"
       height="35"
       x="67.45314"
       y="-123.30224"
       style="fill:#ffffff;fill-opacity:1;stroke:#000000;stroke-width:0.26458332;stroke-opacity:1"
       transform="rotate(90)" />
    <rect
       id="rect4302"
       width="35"
       height="35"
       x="102.45315"
       y="-123.30224"
       style="stroke:#000000;stroke-width:0.26458332;stroke-opacity:1"
       transform="rotate(90)" />
    <rect
       style="fill:#fffffb;fill-opacity:1;stroke:#000000;stroke-width:0.26458332;stroke-opacity:1"
       y="-158.30223"
       x="102.45315"
       height="35"
       width="35"
       id="rect4304"
       transform="rotate(90)" />
    <rect
       style="stroke:#000000;stroke-width:0.26458332;stroke-opacity:1"
       y="-88.037651"
       x="67.45314"
       height="35"
       width="35"
       id="rect4288"
       transform="rotate(90)" />
    <rect
       id="rect4290"
       width="35"
       height="35"
       x="67.45314"
       y="-53.037651"
       style="fill:#ffffff;fill-opacity:1;stroke:#000000;stroke-width:0.26458332;stroke-opacity:1"
       transform="rotate(90)" />
    <rect
       id="rect4292"
       width="35"
       height="35"
       x="102.45315"
       y="-53.037651"
       style="stroke:#000000;stroke-width:0.26458332;stroke-opacity:1"
       transform="rotate(90)" />
    <rect
       style="fill:#fffffb;fill-opacity:1;stroke:#000000;stroke-width:0.26458332;stroke-opacity:1"
       y="-88.037651"
       x="102.45315"
       height="35"
       width="35"
       id="rect4294"
       transform="rotate(90)" />
    <rect
       style="stroke:#000000;stroke-width:0.26458332;stroke-opacity:1"
       y="-579.88971"
       x="137.71773"
       height="35"
       width="35"
       id="rect4278"
       transform="rotate(90)" />
    <rect
       id="rect4280"
       width="35"
       height="35"
       x="137.71773"
       y="-544.88971"
       style="fill:#ffffff;fill-opacity:1;stroke:#000000;stroke-width:0.26458332;stroke-opacity:1"
       transform="rotate(90)" />
    <rect
       id="rect4282"
       width="35"
       height="35"
       x="172.71774"
       y="-544.88971"
       style="stroke:#000000;stroke-width:0.26458332;stroke-opacity:1"
       transform="rotate(90)" />
    <rect
       style="fill:#fffffb;fill-opacity:1;stroke:#000000;stroke-width:0.26458332;stroke-opacity:1"
       y="-579.88971"
       x="172.71774"
       height="35"
       width="35"
       id="rect4284"
       transform="rotate(90)" />
    <rect
       style="stroke:#000000;stroke-width:0.26458332;stroke-opacity:1"
       y="-509.62515"
       x="137.71773"
       height="35"
       width="35"
       id="rect4268"
       transform="rotate(90)" />
    <rect
       id="rect4270"
       width="35"
       height="35"
       x="137.71773"
       y="-474.62515"
       style="fill:#ffffff;fill-opacity:1;stroke:#000000;stroke-width:0.26458332;stroke-opacity:1"
       transform="rotate(90)" />
    <rect
       id="rect4272"
       width="35"
       height="35"
       x="172.71774"
       y="-474.62515"
       style="stroke:#000000;stroke-width:0.26458332;stroke-opacity:1"
       transform="rotate(90)" />
    <rect
       style="fill:#fffffb;fill-opacity:1;stroke:#000000;stroke-width:0.26458332;stroke-opacity:1"
       y="-509.62515"
       x="172.71774"
       height="35"
       width="35"
       id="rect4274"
       transform="rotate(90)" />
    <rect
       style="stroke:#000000;stroke-width:0.26458332;stroke-opacity:1"
       y="-439.36057"
       x="137.71773"
       height="35"
       width="35"
       id="rect4258"
       transform="rotate(90)" />
    <rect
       id="rect4260"
       width="35"
       height="35"
       x="137.71773"
       y="-404.36057"
       style="fill:#ffffff;fill-opacity:1;stroke:#000000;stroke-width:0.26458332;stroke-opacity:1"
       transform="rotate(90)" />
    <rect
       id="rect4262"
       width="35"
       height="35"
       x="172.71774"
       y="-404.36057"
       style="stroke:#000000;stroke-width:0.26458332;stroke-opacity:1"
       transform="rotate(90)" />
    <rect
       style="fill:#fffffb;fill-opacity:1;stroke:#000000;stroke-width:0.26458332;stroke-opacity:1"
       y="-439.36057"
       x="172.71774"
       height="35"
       width="35"
       id="rect4264"
       transform="rotate(90)" />
    <rect
       style="stroke:#000000;stroke-width:0.26458332;stroke-opacity:1"
       y="-369.09598"
       x="137.71773"
       height="35"
       width="35"
       id="rect4248"
       transform="rotate(90)" />
    <rect
       id="rect4250"
       width="35"
       height="35"
       x="137.71773"
       y="-334.09598"
       style="fill:#ffffff;fill-opacity:1;stroke:#000000;stroke-width:0.26458332;stroke-opacity:1"
       transform="rotate(90)" />
    <rect
       id="rect4252"
       width="35"
       height="35"
       x="172.71774"
       y="-334.09598"
       style="stroke:#000000;stroke-width:0.26458332;stroke-opacity:1"
       transform="rotate(90)" />
    <rect
       style="fill:#fffffb;fill-opacity:1;stroke:#000000;stroke-width:0.26458332;stroke-opacity:1"
       y="-369.09598"
       x="172.71774"
       height="35"
       width="35"
       id="rect4254"
       transform="rotate(90)" />
    <rect
       style="stroke:#000000;stroke-width:0.26458332;stroke-opacity:1"
       y="-298.83139"
       x="137.71773"
       height="35"
       width="35"
       id="rect4238"
       transform="rotate(90)" />
    <rect
       id="rect4240"
       width="35"
       height="35"
       x="137.71773"
       y="-263.83139"
       style="fill:#ffffff;fill-opacity:1;stroke:#000000;stroke-width:0.26458332;stroke-opacity:1"
       transform="rotate(90)" />
    <rect
       id="rect4242"
       width="35"
       height="35"
       x="172.71774"
       y="-263.83139"
       style="stroke:#000000;stroke-width:0.26458332;stroke-opacity:1"
       transform="rotate(90)" />
    <rect
       style="fill:#fffffb;fill-opacity:1;stroke:#000000;stroke-width:0.26458332;stroke-opacity:1"
       y="-298.83139"
       x="172.71774"
       height="35"
       width="35"
       id="rect4244"
       transform="rotate(90)" />
    <rect
       style="stroke:#000000;stroke-width:0.26458332;stroke-opacity:1"
       y="-228.56682"
       x="137.71773"
       height="35"
       width="35"
       id="rect4228"
       transform="rotate(90)" />
    <rect
       id="rect4230"
       width="35"
       height="35"
       x="137.71773"
       y="-193.56683"
       style="fill:#ffffff;fill-opacity:1;stroke:#000000;stroke-width:0.26458332;stroke-opacity:1"
       transform="rotate(90)" />
    <rect
       id="rect4232"
       width="35"
       height="35"
       x="172.71774"
       y="-193.56683"
       style="stroke:#000000;stroke-width:0.26458332;stroke-opacity:1"
       transform="rotate(90)" />
    <rect
       style="fill:#fffffb;fill-opacity:1;stroke:#000000;stroke-width:0.26458332;stroke-opacity:1"
       y="-228.56682"
       x="172.71774"
       height="35"
       width="35"
       id="rect4234"
       transform="rotate(90)" />
    <rect
       style="stroke:#000000;stroke-width:0.26458332;stroke-opacity:1"
       y="-158.30223"
       x="137.71773"
       height="35"
       width="35"
       id="rect4218"
       transform="rotate(90)" />
    <rect
       id="rect4220"
       width="35"
       height="35"
       x="137.71773"
       y="-123.30224"
       style="fill:#ffffff;fill-opacity:1;stroke:#000000;stroke-width:0.26458332;stroke-opacity:1"
       transform="rotate(90)" />
    <rect
       id="rect4222"
       width="35"
       height="35"
       x="172.71774"
       y="-123.30224"
       style="stroke:#000000;stroke-width:0.26458332;stroke-opacity:1"
       transform="rotate(90)" />
    <rect
       style="fill:#fffffb;fill-opacity:1;stroke:#000000;stroke-width:0.26458332;stroke-opacity:1"
       y="-158.30223"
       x="172.71774"
       height="35"
       width="35"
       id="rect4224"
       transform="rotate(90)" />
    <rect
       style="stroke:#000000;stroke-width:0.26458332;stroke-opacity:1"
       y="-88.037651"
       x="137.71773"
       height="35"
       width="35"
       id="rect4208"
       transform="rotate(90)" />
    <rect
       id="rect4210"
       width="35"
       height="35"
       x="137.71773"
       y="-53.037651"
       style="fill:#ffffff;fill-opacity:1;stroke:#000000;stroke-width:0.26458332;stroke-opacity:1"
       transform="rotate(90)" />
    <rect
       id="rect4212"
       width="35"
       height="35"
       x="172.71774"
       y="-53.037651"
       style="stroke:#000000;stroke-width:0.26458332;stroke-opacity:1"
       transform="rotate(90)" />
    <rect
       style="fill:#fffffb;fill-opacity:1;stroke:#000000;stroke-width:0.26458332;stroke-opacity:1"
       y="-88.037651"
       x="172.71774"
       height="35"
       width="35"
       id="rect4214"
       transform="rotate(90)" />
    <rect
       style="stroke:#000000;stroke-width:0.26458332;stroke-opacity:1"
       y="-579.88971"
       x="207.98232"
       height="35"
       width="35"
       id="rect4198"
       transform="rotate(90)" />
    <rect
       id="rect4200"
       width="35"
       height="35"
       x="207.98232"
       y="-544.88971"
       style="fill:#ffffff;fill-opacity:1;stroke:#000000;stroke-width:0.26458332;stroke-opacity:1"
       transform="rotate(90)" />
    <rect
       id="rect4202"
       width="35"
       height="35"
       x="242.98233"
       y="-544.88971"
       style="stroke:#000000;stroke-width:0.26458332;stroke-opacity:1"
       transform="rotate(90)" />
    <rect
       style="fill:#fffffb;fill-opacity:1;stroke:#000000;stroke-width:0.26458332;stroke-opacity:1"
       y="-579.88971"
       x="242.98233"
       height="35"
       width="35"
       id="rect4204"
       transform="rotate(90)" />
    <rect
       style="stroke:#000000;stroke-width:0.26458332;stroke-opacity:1"
       y="-509.62515"
       x="207.98232"
       height="35"
       width="35"
       id="rect4188"
       transform="rotate(90)" />
    <rect
       id="rect4190"
       width="35"
       height="35"
       x="207.98232"
       y="-474.62515"
       style="fill:#ffffff;fill-opacity:1;stroke:#000000;stroke-width:0.26458332;stroke-opacity:1"
       transform="rotate(90)" />
    <rect
       id="rect4192"
       width="35"
       height="35"
       x="242.98233"
       y="-474.62515"
       style="stroke:#000000;stroke-width:0.26458332;stroke-opacity:1"
       transform="rotate(90)" />
    <rect
       style="fill:#fffffb;fill-opacity:1;stroke:#000000;stroke-width:0.26458332;stroke-opacity:1"
       y="-509.62515"
       x="242.98233"
       height="35"
       width="35"
       id="rect4194"
       transform="rotate(90)" />
    <rect
       style="stroke:#000000;stroke-width:0.26458332;stroke-opacity:1"
       y="-439.36057"
       x="207.98232"
       height="35"
       width="35"
       id="rect4178"
       transform="rotate(90)" />
    <rect
       id="rect4180"
       width="35"
       height="35"
       x="207.98232"
       y="-404.36057"
       style="fill:#ffffff;fill-opacity:1;stroke:#000000;stroke-width:0.26458332;stroke-opacity:1"
       transform="rotate(90)" />
    <rect
       id="rect4182"
       width="35"
       height="35"
       x="242.98233"
       y="-404.36057"
       style="stroke:#000000;stroke-width:0.26458332;stroke-opacity:1"
       transform="rotate(90)" />
    <rect
       style="fill:#fffffb;fill-opacity:1;stroke:#000000;stroke-width:0.26458332;stroke-opacity:1"
       y="-439.36057"
       x="242.98233"
       height="35"
       width="35"
       id="rect4184"
       transform="rotate(90)" />
    <rect
       style="stroke:#000000;stroke-width:0.26458332;stroke-opacity:1"
       y="-369.09598"
       x="207.98232"
       height="35"
       width="35"
       id="rect4168"
       transform="rotate(90)" />
    <rect
       id="rect4170"
       width="35"
       height="35"
       x="207.98232"
       y="-334.09598"
       style="fill:#ffffff;fill-opacity:1;stroke:#000000;stroke-width:0.26458332;stroke-opacity:1"
       transform="rotate(90)" />
    <rect
       id="rect4172"
       width="35"
       height="35"
       x="242.98233"
       y="-334.09598"
       style="stroke:#000000;stroke-width:0.26458332;stroke-opacity:1"
       transform="rotate(90)" />
    <rect
       style="fill:#fffffb;fill-opacity:1;stroke:#000000;stroke-width:0.26458332;stroke-opacity:1"
       y="-369.09598"
       x="242.98233"
       height="35"
       width="35"
       id="rect4174"
       transform="rotate(90)" />
    <rect
       style="stroke:#000000;stroke-width:0.26458332;stroke-opacity:1"
       y="-298.83139"
       x="207.98232"
       height="35"
       width="35"
       id="rect4158"
       transform="rotate(90)" />
    <rect
       id="rect4160"
       width="35"
       height="35"
       x="207.98232"
       y="-263.83139"
       style="fill:#ffffff;fill-opacity:1;stroke:#000000;stroke-width:0.26458332;stroke-opacity:1"
       transform="rotate(90)" />
    <rect
       id="rect4162"
       width="35"
       height="35"
       x="242.98233"
       y="-263.83139"
       style="stroke:#000000;stroke-width:0.26458332;stroke-opacity:1"
       transform="rotate(90)" />
    <rect
       style="fill:#fffffb;fill-opacity:1;stroke:#000000;stroke-width:0.26458332;stroke-opacity:1"
       y="-298.83139"
       x="242.98233"
       height="35"
       width="35"
       id="rect4164"
       transform="rotate(90)" />
    <rect
       style="stroke:#000000;stroke-width:0.26458332;stroke-opacity:1"
       y="-228.56682"
       x="207.98232"
       height="35"
       width="35"
       id="rect4148"
       transform="rotate(90)" />
    <rect
       id="rect4150"
       width="35"
       height="35"
       x="207.98232"
       y="-193.56683"
       style="fill:#ffffff;fill-opacity:1;stroke:#000000;stroke-width:0.26458332;stroke-opacity:1"
       transform="rotate(90)" />
    <rect
       id="rect4152"
       width="35"
       height="35"
       x="242.98233"
       y="-193.56683"
       style="stroke:#000000;stroke-width:0.26458332;stroke-opacity:1"
       transform="rotate(90)" />
    <rect
       style="fill:#fffffb;fill-opacity:1;stroke:#000000;stroke-width:0.26458332;stroke-opacity:1"
       y="-228.56682"
       x="242.98233"
       height="35"
       width="35"
       id="rect4154"
       transform="rotate(90)" />
    <rect
       style="stroke:#000000;stroke-width:0.26458332;stroke-opacity:1"
       y="-158.30223"
       x="207.98232"
       height="35"
       width="35"
       id="rect4138"
       transform="rotate(90)" />
    <rect
       id="rect4140"
       width="35"
       height="35"
       x="207.98232"
       y="-123.30224"
       style="fill:#ffffff;fill-opacity:1;stroke:#000000;stroke-width:0.26458332;stroke-opacity:1"
       transform="rotate(90)" />
    <rect
       id="rect4142"
       width="35"
       height="35"
       x="242.98233"
       y="-123.30224"
       style="stroke:#000000;stroke-width:0.26458332;stroke-opacity:1"
       transform="rotate(90)" />
    <rect
       style="fill:#fffffb;fill-opacity:1;stroke:#000000;stroke-width:0.26458332;stroke-opacity:1"
       y="-158.30223"
       x="242.98233"
       height="35"
       width="35"
       id="rect4144"
       transform="rotate(90)" />
    <rect
       style="stroke:#000000;stroke-width:0.26458332;stroke-opacity:1"
       y="-88.037651"
       x="207.98232"
       height="35"
       width="35"
       id="rect4128"
       transform="rotate(90)" />
    <rect
       id="rect4130"
       width="35"
       height="35"
       x="207.98232"
       y="-53.037651"
       style="fill:#ffffff;fill-opacity:1;stroke:#000000;stroke-width:0.26458332;stroke-opacity:1"
       transform="rotate(90)" />
    <rect
       id="rect4132"
       width="35"
       height="35"
       x="242.98233"
       y="-53.037651"
       style="stroke:#000000;stroke-width:0.26458332;stroke-opacity:1"
       transform="rotate(90)" />
    <rect
       style="fill:#fffffb;fill-opacity:1;stroke:#000000;stroke-width:0.26458332;stroke-opacity:1"
       y="-88.037651"
       x="242.98233"
       height="35"
       width="35"
       id="rect4134"
       transform="rotate(90)" />
  </g>
</svg>
