<?xml version="1.0" encoding="UTF-8" standalone="no"?>
<!-- Created with Inkscape (http://www.inkscape.org/) -->

<svg
   xmlns:dc="http://purl.org/dc/elements/1.1/"
   xmlns:cc="http://creativecommons.org/ns#"
   xmlns:rdf="http://www.w3.org/1999/02/22-rdf-syntax-ns#"
   xmlns:svg="http://www.w3.org/2000/svg"
   xmlns="http://www.w3.org/2000/svg"
   xmlns:sodipodi="http://sodipodi.sourceforge.net/DTD/sodipodi-0.dtd"
   xmlns:inkscape="http://www.inkscape.org/namespaces/inkscape"
   width="600mm"
   height="300mm"
   viewBox="0 0 600 300"
   version="1.1"
   id="svg996"
   sodipodi:docname="terachess_board_play_side_white.svg"
   inkscape:version="0.92.2 (unknown)">
  <defs
     id="defs990" />
  <sodipodi:namedview
     id="base"
     pagecolor="#ffffff"
     bordercolor="#666666"
     borderopacity="1.0"
     inkscape:pageopacity="0.0"
     inkscape:pageshadow="2"
     inkscape:zoom="0.35"
     inkscape:cx="1202.8499"
     inkscape:cy="685.23966"
     inkscape:document-units="mm"
     inkscape:current-layer="layer1"
     showgrid="false"
     inkscape:window-width="1325"
     inkscape:window-height="744"
     inkscape:window-x="41"
     inkscape:window-y="24"
     inkscape:window-maximized="1" />
  <metadata
     id="metadata993">
    <rdf:RDF>
      <cc:Work
         rdf:about="">
        <dc:format>image/svg+xml</dc:format>
        <dc:type
           rdf:resource="http://purl.org/dc/dcmitype/StillImage" />
        <dc:title></dc:title>
      </cc:Work>
    </rdf:RDF>
  </metadata>
  <g
     inkscape:groupmode="layer"
     id="layer3"
     inkscape:label="background"
     transform="translate(0,-300)" />
  <g
     inkscape:label="Layer 1"
     inkscape:groupmode="layer"
     id="layer1"
     transform="translate(0,3)">
    <g
       aria-label="A         B        C        D        E         F        G        H         I         J         K         L        M        N        O        P"
       style="font-style:normal;font-weight:normal;font-size:10.58333302px;line-height:1.25;font-family:sans-serif;letter-spacing:0px;word-spacing:0px;fill:#000000;fill-opacity:1;stroke:none;stroke-width:0.26458332"
       id="text6089">
      <path
         d="m 34.791585,283.59435 -1.415935,3.83956 h 2.837036 z m -0.589112,-1.02836 h 1.18339 l 2.940389,7.71529 h -1.085205 l -0.702799,-1.97921 h -3.477824 l -0.702799,1.97921 h -1.100708 z"
         style="stroke-width:0.26458332"
         id="path10404" />
      <path
         d="m 70.815224,286.59675 v 2.8267 h 1.674317 q 0.842325,0 1.245402,-0.34623 0.408243,-0.3514 0.408243,-1.0697 0,-0.72347 -0.408243,-1.06454 -0.403077,-0.34623 -1.245402,-0.34623 z m 0,-3.17293 v 2.32544 h 1.545126 q 0.764811,0 1.136881,-0.28422 0.377238,-0.28939 0.377238,-0.8785 0,-0.58395 -0.377238,-0.87333 -0.37207,-0.28939 -1.136881,-0.28939 z m -1.043864,-0.85783 h 2.666504 q 1.193726,0 1.839681,0.49609 0.645956,0.4961 0.645956,1.41077 0,0.70797 -0.33073,1.12655 -0.330729,0.41857 -0.971517,0.52193 0.769979,0.16536 1.193726,0.69246 0.428914,0.52193 0.428914,1.30742 0,1.03352 -0.702799,1.5968 -0.7028,0.56327 -1.999878,0.56327 H 69.77136 Z"
         style="stroke-width:0.26458332"
         id="path10406" />
      <path
         d="m 109.75858,283.16027 v 1.10071 q -0.5271,-0.49093 -1.12654,-0.73381 -0.59428,-0.24288 -1.26608,-0.24288 -1.32291,0 -2.02571,0.81132 -0.7028,0.80615 -0.7028,2.33578 0,1.52445 0.7028,2.33577 0.7028,0.80615 2.02571,0.80615 0.6718,0 1.26608,-0.24288 0.59944,-0.24288 1.12654,-0.7338 v 1.09037 q -0.54777,0.37207 -1.16272,0.55811 -0.60978,0.18603 -1.29191,0.18603 -1.75183,0 -2.75952,-1.0697 -1.00769,-1.07487 -1.00769,-2.93005 0,-1.86036 1.00769,-2.93006 1.00769,-1.07487 2.75952,-1.07487 0.69247,0 1.30225,0.18604 0.61495,0.18087 1.15238,0.54777 z"
         style="stroke-width:0.26458332"
         id="path10408" />
      <path
         d="m 139.37951,283.42382 v 5.99963 h 1.26091 q 1.5968,0 2.33577,-0.72347 0.74414,-0.72347 0.74414,-2.2841 0,-1.55029 -0.74414,-2.26859 -0.73897,-0.72347 -2.33577,-0.72347 z m -1.04386,-0.85783 h 2.14457 q 2.24276,0 3.29179,0.93534 1.04903,0.93018 1.04903,2.91455 0,1.99471 -1.0542,2.93006 -1.0542,0.93534 -3.28662,0.93534 h -2.14457 z"
         style="stroke-width:0.26458332"
         id="path10410" />
      <path
         d="m 173.43427,282.56599 h 4.87826 v 0.8785 h -3.83439 v 2.2841 h 3.67419 v 0.8785 h -3.67419 v 2.79569 h 3.92741 v 0.8785 h -4.97128 z"
         style="stroke-width:0.26458332"
         id="path10412" />
      <path
         d="m 210.45527,282.56599 h 4.43384 v 0.8785 h -3.38998 v 2.27376 h 3.05925 v 0.8785 h -3.05925 v 3.68453 h -1.04386 z"
         style="stroke-width:0.26458332"
         id="path10414" />
      <path
         d="m 248.76818,289.18057 v -2.07222 h -1.70532 v -0.85783 h 2.73885 v 3.31246 q -0.60462,0.42891 -1.33326,0.65112 -0.72863,0.21704 -1.55546,0.21704 -1.80867,0 -2.83186,-1.0542 -1.01803,-1.05936 -1.01803,-2.94555 0,-1.89136 1.01803,-2.94556 1.02319,-1.05937 2.83186,-1.05937 0.75448,0 1.43144,0.18604 0.68213,0.18603 1.25574,0.54777 v 1.11104 q -0.57878,-0.49092 -1.2299,-0.73897 -0.65112,-0.24805 -1.36943,-0.24805 -1.41593,0 -2.12907,0.79065 -0.70796,0.79065 -0.70796,2.35645 0,1.56062 0.70796,2.35127 0.71314,0.79065 2.12907,0.79065 0.55294,0 0.98702,-0.093 0.43409,-0.0982 0.78032,-0.29973 z"
         style="stroke-width:0.26458332"
         id="path10416" />
      <path
         d="m 278.66816,282.56599 h 1.04387 v 3.1626 h 3.79305 v -3.1626 h 1.04386 v 7.71529 h -1.04386 v -3.67419 h -3.79305 v 3.67419 h -1.04387 z"
         style="stroke-width:0.26458332"
         id="path10418" />
      <path
         d="m 316.95005,282.56599 h 1.04387 v 7.71529 h -1.04387 z"
         style="stroke-width:0.26458332"
         id="path10420" />
      <path
         d="m 350.39506,282.56599 h 1.04386 v 7.17786 q 0,1.39526 -0.53226,2.02571 -0.5271,0.63045 -1.70016,0.63045 h -0.39791 v -0.8785 h 0.32556 q 0.69247,0 0.97669,-0.38757 0.28422,-0.38757 0.28422,-1.39009 z"
         style="stroke-width:0.26458332"
         id="path10422" />
      <path
         d="m 383.84004,282.56599 h 1.04386 v 3.26078 l 3.46232,-3.26078 h 1.34359 l -3.82923,3.59668 4.10311,4.11861 h -1.37459 l -3.7052,-3.71553 v 3.71553 h -1.04386 z"
         style="stroke-width:0.26458332"
         id="path10424" />
      <path
         d="m 421.10908,282.56599 h 1.04386 v 6.83679 h 3.75688 v 0.8785 h -4.80074 z"
         style="stroke-width:0.26458332"
         id="path10426" />
      <path
         d="m 453.9546,282.56599 h 1.55546 l 1.96887,5.25032 1.97921,-5.25032 h 1.55546 v 7.71529 h -1.01803 v -6.77478 l -1.98954,5.29167 H 456.957 l -1.98954,-5.29167 v 6.77478 h -1.01286 z"
         style="stroke-width:0.26458332"
         id="path10428" />
      <path
         d="m 490.04542,282.56599 h 1.4056 l 3.42098,6.45439 v -6.45439 h 1.01286 v 7.71529 h -1.4056 l -3.42098,-6.45439 v 6.45439 h -1.01286 z"
         style="stroke-width:0.26458332"
         id="path10430" />
      <path
         d="m 528.04829,283.27396 q -1.13688,0 -1.80868,0.84749 -0.66662,0.84749 -0.66662,2.30994 0,1.45727 0.66662,2.30477 0.6718,0.84749 1.80868,0.84749 1.13688,0 1.79834,-0.84749 0.66662,-0.8475 0.66662,-2.30477 0,-1.46245 -0.66662,-2.30994 -0.66146,-0.84749 -1.79834,-0.84749 z m 0,-0.8475 q 1.62264,0 2.59416,1.09038 0.97151,1.0852 0.97151,2.91455 0,1.82417 -0.97151,2.91455 -0.97152,1.0852 -2.59416,1.0852 -1.62781,0 -2.60449,-1.0852 -0.97152,-1.08521 -0.97152,-2.91455 0,-1.82935 0.97152,-2.91455 0.97668,-1.09038 2.60449,-1.09038 z"
         style="stroke-width:0.26458332"
         id="path10432" />
      <path
         d="m 561.2452,283.42382 v 2.89905 h 1.31258 q 0.72864,0 1.12655,-0.37724 0.3979,-0.37724 0.3979,-1.07487 0,-0.69247 -0.3979,-1.0697 -0.39791,-0.37724 -1.12655,-0.37724 z m -1.04387,-0.85783 h 2.35645 q 1.29708,0 1.95854,0.58911 0.66662,0.58394 0.66662,1.71566 0,1.14205 -0.66662,1.72599 -0.66146,0.58394 -1.95854,0.58394 h -1.31258 v 3.10059 h -1.04387 z"
         style="stroke-width:0.26458332"
         id="path10434" />
    </g>
    <text
       xml:space="preserve"
       style="font-style:normal;font-weight:normal;font-size:10.58333302px;line-height:1.25;font-family:sans-serif;letter-spacing:0px;word-spacing:0px;fill:#000000;fill-opacity:1;stroke:none;stroke-width:0.26458332"
       x="8.7136631"
       y="16.254145"
       id="text6093"><tspan
         sodipodi:role="line"
         x="8.7136631"
         y="16.254145"
         style="stroke-width:0.26458332"
         id="tspan6099">8</tspan></text>
    <text
       id="text6109"
       y="52.648659"
       x="8.7136631"
       style="font-style:normal;font-weight:normal;font-size:10.58333302px;line-height:1.25;font-family:sans-serif;letter-spacing:0px;word-spacing:0px;fill:#000000;fill-opacity:1;stroke:none;stroke-width:0.26458332"
       xml:space="preserve"
       inkscape:transform-center-x="13.363476"
       inkscape:transform-center-y="-0.53454363"><tspan
         id="tspan6107"
         style="stroke-width:0.26458332"
         y="52.648659"
         x="8.7136631"
         sodipodi:role="line">7</tspan></text>
    <text
       inkscape:transform-center-y="-0.53454363"
       inkscape:transform-center-x="13.363476"
       xml:space="preserve"
       style="font-style:normal;font-weight:normal;font-size:10.58333302px;line-height:1.25;font-family:sans-serif;letter-spacing:0px;word-spacing:0px;fill:#000000;fill-opacity:1;stroke:none;stroke-width:0.26458332"
       x="8.7136631"
       y="87.393692"
       id="text6113"><tspan
         sodipodi:role="line"
         x="8.7136631"
         y="87.393692"
         style="stroke-width:0.26458332"
         id="tspan6111">6</tspan></text>
    <text
       id="text6117"
       y="122.94054"
       x="8.7136631"
       style="font-style:normal;font-weight:normal;font-size:10.58333302px;line-height:1.25;font-family:sans-serif;letter-spacing:0px;word-spacing:0px;fill:#000000;fill-opacity:1;stroke:none;stroke-width:0.26458332"
       xml:space="preserve"
       inkscape:transform-center-x="13.363476"
       inkscape:transform-center-y="-0.53454363"><tspan
         id="tspan6115"
         style="stroke-width:0.26458332"
         y="122.94054"
         x="8.7136631"
         sodipodi:role="line">5</tspan></text>
    <text
       inkscape:transform-center-y="-0.53454363"
       inkscape:transform-center-x="13.363476"
       xml:space="preserve"
       style="font-style:normal;font-weight:normal;font-size:10.58333302px;line-height:1.25;font-family:sans-serif;letter-spacing:0px;word-spacing:0px;fill:#000000;fill-opacity:1;stroke:none;stroke-width:0.26458332"
       x="8.4463902"
       y="193.89667"
       id="text6121"><tspan
         sodipodi:role="line"
         x="8.4463902"
         y="193.89667"
         style="stroke-width:0.26458332"
         id="tspan6119">3</tspan></text>
    <text
       id="text6125"
       y="159.95345"
       x="8.4922276"
       style="font-style:normal;font-weight:normal;font-size:10.58333302px;line-height:1.25;font-family:sans-serif;letter-spacing:0px;word-spacing:0px;fill:#000000;fill-opacity:1;stroke:none;stroke-width:0.26458332"
       xml:space="preserve"
       inkscape:transform-center-x="13.363476"
       inkscape:transform-center-y="-0.53454363"><tspan
         id="tspan6123"
         style="stroke-width:0.26458332"
         y="159.95345"
         x="8.4922276"
         sodipodi:role="line">4</tspan></text>
    <text
       id="text6129"
       y="228.7793"
       x="9.248209"
       style="font-style:normal;font-weight:normal;font-size:10.58333302px;line-height:1.25;font-family:sans-serif;letter-spacing:0px;word-spacing:0px;fill:#000000;fill-opacity:1;stroke:none;stroke-width:0.26458332"
       xml:space="preserve"
       inkscape:transform-center-x="13.363476"
       inkscape:transform-center-y="-0.53454363"><tspan
         id="tspan6127"
         style="stroke-width:0.26458332"
         y="228.7793"
         x="9.248209"
         sodipodi:role="line">2</tspan></text>
    <text
       inkscape:transform-center-y="-0.53454363"
       inkscape:transform-center-x="13.363476"
       xml:space="preserve"
       style="font-style:normal;font-weight:normal;font-size:10.58333302px;line-height:1.25;font-family:sans-serif;letter-spacing:0px;word-spacing:0px;fill:#000000;fill-opacity:1;stroke:none;stroke-width:0.26458332"
       x="8.9809361"
       y="264.59341"
       id="text6133"><tspan
         sodipodi:role="line"
         x="8.9809361"
         y="264.59341"
         style="stroke-width:0.26458332"
         id="tspan6131">1</tspan></text>
    <text
       xml:space="preserve"
       style="font-style:normal;font-weight:normal;font-size:10.58333302px;line-height:1.25;font-family:sans-serif;letter-spacing:0px;word-spacing:0px;fill:#000000;fill-opacity:1;stroke:none;stroke-width:0.26458332"
       x="-591.50769"
       y="-9.7970848"
       id="text6137"
       transform="scale(-1)"><tspan
         sodipodi:role="line"
         id="tspan6135"
         x="-591.50769"
         y="-9.7970848"
         style="stroke-width:0.26458332">8</tspan></text>
    <text
       transform="scale(-1)"
       id="text6141"
       y="-44.948868"
       x="-591.50769"
       style="font-style:normal;font-weight:normal;font-size:10.58333302px;line-height:1.25;font-family:sans-serif;letter-spacing:0px;word-spacing:0px;fill:#000000;fill-opacity:1;stroke:none;stroke-width:0.26458332"
       xml:space="preserve"><tspan
         style="stroke-width:0.26458332"
         y="-44.948868"
         x="-591.50769"
         id="tspan6139"
         sodipodi:role="line">7</tspan></text>
    <text
       xml:space="preserve"
       style="font-style:normal;font-weight:normal;font-size:10.58333302px;line-height:1.25;font-family:sans-serif;letter-spacing:0px;word-spacing:0px;fill:#000000;fill-opacity:1;stroke:none;stroke-width:0.26458332"
       x="-591.12976"
       y="-80.47863"
       id="text6145"
       transform="scale(-1)"><tspan
         sodipodi:role="line"
         id="tspan6143"
         x="-591.12976"
         y="-80.47863"
         style="stroke-width:0.26458332">6</tspan></text>
    <text
       transform="scale(-1)"
       id="text6149"
       y="-116.38638"
       x="-591.12976"
       style="font-style:normal;font-weight:normal;font-size:10.58333302px;line-height:1.25;font-family:sans-serif;letter-spacing:0px;word-spacing:0px;fill:#000000;fill-opacity:1;stroke:none;stroke-width:0.26458332"
       xml:space="preserve"><tspan
         style="stroke-width:0.26458332"
         y="-116.38638"
         x="-591.12976"
         id="tspan6147"
         sodipodi:role="line">5</tspan></text>
    <text
       xml:space="preserve"
       style="font-style:normal;font-weight:normal;font-size:10.58333302px;line-height:1.25;font-family:sans-serif;letter-spacing:0px;word-spacing:0px;fill:#000000;fill-opacity:1;stroke:none;stroke-width:0.26458332"
       x="-591.50769"
       y="-151.16019"
       id="text6153"
       transform="scale(-1)"><tspan
         sodipodi:role="line"
         id="tspan6151"
         x="-591.50769"
         y="-151.16019"
         style="stroke-width:0.26458332">4</tspan></text>
    <text
       transform="scale(-1)"
       id="text6157"
       y="-185.93399"
       x="-591.12976"
       style="font-style:normal;font-weight:normal;font-size:10.58333302px;line-height:1.25;font-family:sans-serif;letter-spacing:0px;word-spacing:0px;fill:#000000;fill-opacity:1;stroke:none;stroke-width:0.26458332"
       xml:space="preserve"><tspan
         style="stroke-width:0.26458332"
         y="-185.93399"
         x="-591.12976"
         id="tspan6155"
         sodipodi:role="line">3</tspan></text>
    <text
       xml:space="preserve"
       style="font-style:normal;font-weight:normal;font-size:10.58333302px;line-height:1.25;font-family:sans-serif;letter-spacing:0px;word-spacing:0px;fill:#000000;fill-opacity:1;stroke:none;stroke-width:0.26458332"
       x="-590.75177"
       y="-221.46375"
       id="text6161"
       transform="scale(-1)"><tspan
         sodipodi:role="line"
         id="tspan6159"
         x="-590.75177"
         y="-221.46375"
         style="stroke-width:0.26458332">2</tspan></text>
    <text
       transform="scale(-1)"
       id="text6165"
       y="-256.9935"
       x="-590.75177"
       style="font-style:normal;font-weight:normal;font-size:10.58333302px;line-height:1.25;font-family:sans-serif;letter-spacing:0px;word-spacing:0px;fill:#000000;fill-opacity:1;stroke:none;stroke-width:0.26458332"
       xml:space="preserve"><tspan
         style="stroke-width:0.26458332"
         y="-256.9935"
         x="-590.75177"
         id="tspan6163"
         sodipodi:role="line">1</tspan></text>
    <rect
       id="rect998"
       width="35"
       height="35"
       x="-2.8114483"
       y="-580.97961"
       style="stroke:#000000;stroke-width:0.26458332;stroke-opacity:1"
       transform="rotate(90)" />
    <rect
       style="fill:#ffffff;fill-opacity:1;stroke:#000000;stroke-width:0.26458332;stroke-opacity:1"
       y="-545.97961"
       x="-2.8114483"
       height="35"
       width="35"
       id="rect1000"
       transform="rotate(90)" />
    <rect
       style="stroke:#000000;stroke-width:0.26458332;stroke-opacity:1"
       y="-545.97961"
       x="32.188557"
       height="35"
       width="35"
       id="rect1807"
       transform="rotate(90)" />
    <rect
       id="rect1809"
       width="35"
       height="35"
       x="32.188557"
       y="-580.97961"
       style="fill:#fffffb;fill-opacity:1;stroke:#000000;stroke-width:0.26458332;stroke-opacity:1"
       transform="rotate(90)" />
    <rect
       style="stroke:#000000;stroke-width:0.26458332;stroke-opacity:1"
       y="-580.97961"
       x="-2.8114483"
       height="35"
       width="35"
       id="rect4617"
       transform="rotate(90)" />
    <rect
       id="rect4619"
       width="35"
       height="35"
       x="-2.8114483"
       y="-545.97961"
       style="fill:#ffffff;fill-opacity:1;stroke:#000000;stroke-width:0.26458332;stroke-opacity:1"
       transform="rotate(90)" />
    <rect
       id="rect4621"
       width="35"
       height="35"
       x="32.188557"
       y="-545.97961"
       style="stroke:#000000;stroke-width:0.26458332;stroke-opacity:1"
       transform="rotate(90)" />
    <rect
       style="fill:#fffffb;fill-opacity:1;stroke:#000000;stroke-width:0.26458332;stroke-opacity:1"
       y="-580.97961"
       x="32.188557"
       height="35"
       width="35"
       id="rect4623"
       transform="rotate(90)" />
    <rect
       style="stroke:#000000;stroke-width:0.26458332;stroke-opacity:1"
       y="-510.71506"
       x="-2.8114483"
       height="35"
       width="35"
       id="rect4627"
       transform="rotate(90)" />
    <rect
       id="rect4629"
       width="35"
       height="35"
       x="-2.8114483"
       y="-475.71506"
       style="fill:#ffffff;fill-opacity:1;stroke:#000000;stroke-width:0.26458332;stroke-opacity:1"
       transform="rotate(90)" />
    <rect
       id="rect4631"
       width="35"
       height="35"
       x="32.188557"
       y="-475.71506"
       style="stroke:#000000;stroke-width:0.26458332;stroke-opacity:1"
       transform="rotate(90)" />
    <rect
       style="fill:#fffffb;fill-opacity:1;stroke:#000000;stroke-width:0.26458332;stroke-opacity:1"
       y="-510.71506"
       x="32.188557"
       height="35"
       width="35"
       id="rect4633"
       transform="rotate(90)" />
    <rect
       style="stroke:#000000;stroke-width:0.26458332;stroke-opacity:1"
       y="-440.45047"
       x="-2.8114483"
       height="35"
       width="35"
       id="rect4637"
       transform="rotate(90)" />
    <rect
       id="rect4639"
       width="35"
       height="35"
       x="-2.8114483"
       y="-405.45047"
       style="fill:#ffffff;fill-opacity:1;stroke:#000000;stroke-width:0.26458332;stroke-opacity:1"
       transform="rotate(90)" />
    <rect
       id="rect4641"
       width="35"
       height="35"
       x="32.188557"
       y="-405.45047"
       style="stroke:#000000;stroke-width:0.26458332;stroke-opacity:1"
       transform="rotate(90)" />
    <rect
       style="fill:#fffffb;fill-opacity:1;stroke:#000000;stroke-width:0.26458332;stroke-opacity:1"
       y="-440.45047"
       x="32.188557"
       height="35"
       width="35"
       id="rect4643"
       transform="rotate(90)" />
    <rect
       style="stroke:#000000;stroke-width:0.26458332;stroke-opacity:1"
       y="-370.18588"
       x="-2.8114483"
       height="35"
       width="35"
       id="rect4647"
       transform="rotate(90)" />
    <rect
       id="rect4649"
       width="35"
       height="35"
       x="-2.8114483"
       y="-335.18588"
       style="fill:#ffffff;fill-opacity:1;stroke:#000000;stroke-width:0.26458332;stroke-opacity:1"
       transform="rotate(90)" />
    <rect
       id="rect4651"
       width="35"
       height="35"
       x="32.188557"
       y="-335.18588"
       style="stroke:#000000;stroke-width:0.26458332;stroke-opacity:1"
       transform="rotate(90)" />
    <rect
       style="fill:#fffffb;fill-opacity:1;stroke:#000000;stroke-width:0.26458332;stroke-opacity:1"
       y="-370.18588"
       x="32.188557"
       height="35"
       width="35"
       id="rect4653"
       transform="rotate(90)" />
    <rect
       style="stroke:#000000;stroke-width:0.26458332;stroke-opacity:1"
       y="-299.9213"
       x="-2.8114483"
       height="35"
       width="35"
       id="rect4657"
       transform="rotate(90)" />
    <rect
       id="rect4659"
       width="35"
       height="35"
       x="-2.8114483"
       y="-264.9213"
       style="fill:#ffffff;fill-opacity:1;stroke:#000000;stroke-width:0.26458332;stroke-opacity:1"
       transform="rotate(90)" />
    <rect
       id="rect4661"
       width="35"
       height="35"
       x="32.188557"
       y="-264.9213"
       style="stroke:#000000;stroke-width:0.26458332;stroke-opacity:1"
       transform="rotate(90)" />
    <rect
       style="fill:#fffffb;fill-opacity:1;stroke:#000000;stroke-width:0.26458332;stroke-opacity:1"
       y="-299.9213"
       x="32.188557"
       height="35"
       width="35"
       id="rect4663"
       transform="rotate(90)" />
    <rect
       style="stroke:#000000;stroke-width:0.26458332;stroke-opacity:1"
       y="-229.65674"
       x="-2.8114483"
       height="35"
       width="35"
       id="rect4667"
       transform="rotate(90)" />
    <rect
       id="rect4669"
       width="35"
       height="35"
       x="-2.8114483"
       y="-194.65674"
       style="fill:#ffffff;fill-opacity:1;stroke:#000000;stroke-width:0.26458332;stroke-opacity:1"
       transform="rotate(90)" />
    <rect
       id="rect4671"
       width="35"
       height="35"
       x="32.188557"
       y="-194.65674"
       style="stroke:#000000;stroke-width:0.26458332;stroke-opacity:1"
       transform="rotate(90)" />
    <rect
       style="fill:#fffffb;fill-opacity:1;stroke:#000000;stroke-width:0.26458332;stroke-opacity:1"
       y="-229.65674"
       x="32.188557"
       height="35"
       width="35"
       id="rect4673"
       transform="rotate(90)" />
    <rect
       style="stroke:#000000;stroke-width:0.26458332;stroke-opacity:1"
       y="-159.39215"
       x="-2.8114483"
       height="35"
       width="35"
       id="rect4677"
       transform="rotate(90)" />
    <rect
       id="rect4679"
       width="35"
       height="35"
       x="-2.8114483"
       y="-124.39214"
       style="fill:#ffffff;fill-opacity:1;stroke:#000000;stroke-width:0.26458332;stroke-opacity:1"
       transform="rotate(90)" />
    <rect
       id="rect4681"
       width="35"
       height="35"
       x="32.188557"
       y="-124.39214"
       style="stroke:#000000;stroke-width:0.26458332;stroke-opacity:1"
       transform="rotate(90)" />
    <rect
       style="fill:#fffffb;fill-opacity:1;stroke:#000000;stroke-width:0.26458332;stroke-opacity:1"
       y="-159.39215"
       x="32.188557"
       height="35"
       width="35"
       id="rect4683"
       transform="rotate(90)" />
    <rect
       style="stroke:#000000;stroke-width:0.26458332;stroke-opacity:1"
       y="-89.127556"
       x="-2.8114483"
       height="35"
       width="35"
       id="rect4687"
       transform="rotate(90)" />
    <rect
       id="rect4689"
       width="35"
       height="35"
       x="-2.8114483"
       y="-54.127556"
       style="fill:#ffffff;fill-opacity:1;stroke:#000000;stroke-width:0.26458332;stroke-opacity:1"
       transform="rotate(90)" />
    <rect
       id="rect4691"
       width="35"
       height="35"
       x="32.188557"
       y="-54.127556"
       style="stroke:#000000;stroke-width:0.26458332;stroke-opacity:1"
       transform="rotate(90)" />
    <rect
       style="fill:#fffffb;fill-opacity:1;stroke:#000000;stroke-width:0.26458332;stroke-opacity:1"
       y="-89.127556"
       x="32.188557"
       height="35"
       width="35"
       id="rect4693"
       transform="rotate(90)" />
    <rect
       style="stroke:#000000;stroke-width:0.26458332;stroke-opacity:1"
       y="-580.97961"
       x="67.45314"
       height="35"
       width="35"
       id="rect4697"
       transform="rotate(90)" />
    <rect
       id="rect4699"
       width="35"
       height="35"
       x="67.45314"
       y="-545.97961"
       style="fill:#ffffff;fill-opacity:1;stroke:#000000;stroke-width:0.26458332;stroke-opacity:1"
       transform="rotate(90)" />
    <rect
       id="rect4701"
       width="35"
       height="35"
       x="102.45315"
       y="-545.97961"
       style="stroke:#000000;stroke-width:0.26458332;stroke-opacity:1"
       transform="rotate(90)" />
    <rect
       style="fill:#fffffb;fill-opacity:1;stroke:#000000;stroke-width:0.26458332;stroke-opacity:1"
       y="-580.97961"
       x="102.45315"
       height="35"
       width="35"
       id="rect4703"
       transform="rotate(90)" />
    <rect
       style="stroke:#000000;stroke-width:0.26458332;stroke-opacity:1"
       y="-510.71506"
       x="67.45314"
       height="35"
       width="35"
       id="rect4707"
       transform="rotate(90)" />
    <rect
       id="rect4709"
       width="35"
       height="35"
       x="67.45314"
       y="-475.71506"
       style="fill:#ffffff;fill-opacity:1;stroke:#000000;stroke-width:0.26458332;stroke-opacity:1"
       transform="rotate(90)" />
    <rect
       id="rect4711"
       width="35"
       height="35"
       x="102.45315"
       y="-475.71506"
       style="stroke:#000000;stroke-width:0.26458332;stroke-opacity:1"
       transform="rotate(90)" />
    <rect
       style="fill:#fffffb;fill-opacity:1;stroke:#000000;stroke-width:0.26458332;stroke-opacity:1"
       y="-510.71506"
       x="102.45315"
       height="35"
       width="35"
       id="rect4713"
       transform="rotate(90)" />
    <rect
       style="stroke:#000000;stroke-width:0.26458332;stroke-opacity:1"
       y="-440.45047"
       x="67.45314"
       height="35"
       width="35"
       id="rect4717"
       transform="rotate(90)" />
    <rect
       id="rect4719"
       width="35"
       height="35"
       x="67.45314"
       y="-405.45047"
       style="fill:#ffffff;fill-opacity:1;stroke:#000000;stroke-width:0.26458332;stroke-opacity:1"
       transform="rotate(90)" />
    <rect
       id="rect4721"
       width="35"
       height="35"
       x="102.45315"
       y="-405.45047"
       style="stroke:#000000;stroke-width:0.26458332;stroke-opacity:1"
       transform="rotate(90)" />
    <rect
       style="fill:#fffffb;fill-opacity:1;stroke:#000000;stroke-width:0.26458332;stroke-opacity:1"
       y="-440.45047"
       x="102.45315"
       height="35"
       width="35"
       id="rect4723"
       transform="rotate(90)" />
    <rect
       style="stroke:#000000;stroke-width:0.26458332;stroke-opacity:1"
       y="-370.18588"
       x="67.45314"
       height="35"
       width="35"
       id="rect4727"
       transform="rotate(90)" />
    <rect
       id="rect4729"
       width="35"
       height="35"
       x="67.45314"
       y="-335.18588"
       style="fill:#ffffff;fill-opacity:1;stroke:#000000;stroke-width:0.26458332;stroke-opacity:1"
       transform="rotate(90)" />
    <rect
       id="rect4731"
       width="35"
       height="35"
       x="102.45315"
       y="-335.18588"
       style="stroke:#000000;stroke-width:0.26458332;stroke-opacity:1"
       transform="rotate(90)" />
    <rect
       style="fill:#fffffb;fill-opacity:1;stroke:#000000;stroke-width:0.26458332;stroke-opacity:1"
       y="-370.18588"
       x="102.45315"
       height="35"
       width="35"
       id="rect4733"
       transform="rotate(90)" />
    <rect
       style="stroke:#000000;stroke-width:0.26458332;stroke-opacity:1"
       y="-299.9213"
       x="67.45314"
       height="35"
       width="35"
       id="rect4737"
       transform="rotate(90)" />
    <rect
       id="rect4739"
       width="35"
       height="35"
       x="67.45314"
       y="-264.9213"
       style="fill:#ffffff;fill-opacity:1;stroke:#000000;stroke-width:0.26458332;stroke-opacity:1"
       transform="rotate(90)" />
    <rect
       id="rect4741"
       width="35"
       height="35"
       x="102.45315"
       y="-264.9213"
       style="stroke:#000000;stroke-width:0.26458332;stroke-opacity:1"
       transform="rotate(90)" />
    <rect
       style="fill:#fffffb;fill-opacity:1;stroke:#000000;stroke-width:0.26458332;stroke-opacity:1"
       y="-299.9213"
       x="102.45315"
       height="35"
       width="35"
       id="rect4743"
       transform="rotate(90)" />
    <rect
       style="stroke:#000000;stroke-width:0.26458332;stroke-opacity:1"
       y="-229.65674"
       x="67.45314"
       height="35"
       width="35"
       id="rect4747"
       transform="rotate(90)" />
    <rect
       id="rect4749"
       width="35"
       height="35"
       x="67.45314"
       y="-194.65674"
       style="fill:#ffffff;fill-opacity:1;stroke:#000000;stroke-width:0.26458332;stroke-opacity:1"
       transform="rotate(90)" />
    <rect
       id="rect4751"
       width="35"
       height="35"
       x="102.45315"
       y="-194.65674"
       style="stroke:#000000;stroke-width:0.26458332;stroke-opacity:1"
       transform="rotate(90)" />
    <rect
       style="fill:#fffffb;fill-opacity:1;stroke:#000000;stroke-width:0.26458332;stroke-opacity:1"
       y="-229.65674"
       x="102.45315"
       height="35"
       width="35"
       id="rect4753"
       transform="rotate(90)" />
    <rect
       style="stroke:#000000;stroke-width:0.26458332;stroke-opacity:1"
       y="-159.39215"
       x="67.45314"
       height="35"
       width="35"
       id="rect4757"
       transform="rotate(90)" />
    <rect
       id="rect4759"
       width="35"
       height="35"
       x="67.45314"
       y="-124.39214"
       style="fill:#ffffff;fill-opacity:1;stroke:#000000;stroke-width:0.26458332;stroke-opacity:1"
       transform="rotate(90)" />
    <rect
       id="rect4761"
       width="35"
       height="35"
       x="102.45315"
       y="-124.39214"
       style="stroke:#000000;stroke-width:0.26458332;stroke-opacity:1"
       transform="rotate(90)" />
    <rect
       style="fill:#fffffb;fill-opacity:1;stroke:#000000;stroke-width:0.26458332;stroke-opacity:1"
       y="-159.39215"
       x="102.45315"
       height="35"
       width="35"
       id="rect4763"
       transform="rotate(90)" />
    <rect
       style="stroke:#000000;stroke-width:0.26458332;stroke-opacity:1"
       y="-89.127556"
       x="67.45314"
       height="35"
       width="35"
       id="rect4767"
       transform="rotate(90)" />
    <rect
       id="rect4769"
       width="35"
       height="35"
       x="67.45314"
       y="-54.127556"
       style="fill:#ffffff;fill-opacity:1;stroke:#000000;stroke-width:0.26458332;stroke-opacity:1"
       transform="rotate(90)" />
    <rect
       id="rect4771"
       width="35"
       height="35"
       x="102.45315"
       y="-54.127556"
       style="stroke:#000000;stroke-width:0.26458332;stroke-opacity:1"
       transform="rotate(90)" />
    <rect
       style="fill:#fffffb;fill-opacity:1;stroke:#000000;stroke-width:0.26458332;stroke-opacity:1"
       y="-89.127556"
       x="102.45315"
       height="35"
       width="35"
       id="rect4773"
       transform="rotate(90)" />
    <rect
       style="stroke:#000000;stroke-width:0.26458332;stroke-opacity:1"
       y="-580.97961"
       x="137.71773"
       height="35"
       width="35"
       id="rect4777"
       transform="rotate(90)" />
    <rect
       id="rect4779"
       width="35"
       height="35"
       x="137.71773"
       y="-545.97961"
       style="fill:#ffffff;fill-opacity:1;stroke:#000000;stroke-width:0.26458332;stroke-opacity:1"
       transform="rotate(90)" />
    <rect
       id="rect4781"
       width="35"
       height="35"
       x="172.71774"
       y="-545.97961"
       style="stroke:#000000;stroke-width:0.26458332;stroke-opacity:1"
       transform="rotate(90)" />
    <rect
       style="fill:#fffffb;fill-opacity:1;stroke:#000000;stroke-width:0.26458332;stroke-opacity:1"
       y="-580.97961"
       x="172.71774"
       height="35"
       width="35"
       id="rect4783"
       transform="rotate(90)" />
    <rect
       style="stroke:#000000;stroke-width:0.26458332;stroke-opacity:1"
       y="-510.71506"
       x="137.71773"
       height="35"
       width="35"
       id="rect4787"
       transform="rotate(90)" />
    <rect
       id="rect4789"
       width="35"
       height="35"
       x="137.71773"
       y="-475.71506"
       style="fill:#ffffff;fill-opacity:1;stroke:#000000;stroke-width:0.26458332;stroke-opacity:1"
       transform="rotate(90)" />
    <rect
       id="rect4791"
       width="35"
       height="35"
       x="172.71774"
       y="-475.71506"
       style="stroke:#000000;stroke-width:0.26458332;stroke-opacity:1"
       transform="rotate(90)" />
    <rect
       style="fill:#fffffb;fill-opacity:1;stroke:#000000;stroke-width:0.26458332;stroke-opacity:1"
       y="-510.71506"
       x="172.71774"
       height="35"
       width="35"
       id="rect4793"
       transform="rotate(90)" />
    <rect
       style="stroke:#000000;stroke-width:0.26458332;stroke-opacity:1"
       y="-440.45047"
       x="137.71773"
       height="35"
       width="35"
       id="rect4797"
       transform="rotate(90)" />
    <rect
       id="rect4799"
       width="35"
       height="35"
       x="137.71773"
       y="-405.45047"
       style="fill:#ffffff;fill-opacity:1;stroke:#000000;stroke-width:0.26458332;stroke-opacity:1"
       transform="rotate(90)" />
    <rect
       id="rect4801"
       width="35"
       height="35"
       x="172.71774"
       y="-405.45047"
       style="stroke:#000000;stroke-width:0.26458332;stroke-opacity:1"
       transform="rotate(90)" />
    <rect
       style="fill:#fffffb;fill-opacity:1;stroke:#000000;stroke-width:0.26458332;stroke-opacity:1"
       y="-440.45047"
       x="172.71774"
       height="35"
       width="35"
       id="rect4803"
       transform="rotate(90)" />
    <rect
       style="stroke:#000000;stroke-width:0.26458332;stroke-opacity:1"
       y="-370.18588"
       x="137.71773"
       height="35"
       width="35"
       id="rect4807"
       transform="rotate(90)" />
    <rect
       id="rect4809"
       width="35"
       height="35"
       x="137.71773"
       y="-335.18588"
       style="fill:#ffffff;fill-opacity:1;stroke:#000000;stroke-width:0.26458332;stroke-opacity:1"
       transform="rotate(90)" />
    <rect
       id="rect4811"
       width="35"
       height="35"
       x="172.71774"
       y="-335.18588"
       style="stroke:#000000;stroke-width:0.26458332;stroke-opacity:1"
       transform="rotate(90)" />
    <rect
       style="fill:#fffffb;fill-opacity:1;stroke:#000000;stroke-width:0.26458332;stroke-opacity:1"
       y="-370.18588"
       x="172.71774"
       height="35"
       width="35"
       id="rect4813"
       transform="rotate(90)" />
    <rect
       style="stroke:#000000;stroke-width:0.26458332;stroke-opacity:1"
       y="-299.9213"
       x="137.71773"
       height="35"
       width="35"
       id="rect4817"
       transform="rotate(90)" />
    <rect
       id="rect4819"
       width="35"
       height="35"
       x="137.71773"
       y="-264.9213"
       style="fill:#ffffff;fill-opacity:1;stroke:#000000;stroke-width:0.26458332;stroke-opacity:1"
       transform="rotate(90)" />
    <rect
       id="rect4821"
       width="35"
       height="35"
       x="172.71774"
       y="-264.9213"
       style="stroke:#000000;stroke-width:0.26458332;stroke-opacity:1"
       transform="rotate(90)" />
    <rect
       style="fill:#fffffb;fill-opacity:1;stroke:#000000;stroke-width:0.26458332;stroke-opacity:1"
       y="-299.9213"
       x="172.71774"
       height="35"
       width="35"
       id="rect4823"
       transform="rotate(90)" />
    <rect
       style="stroke:#000000;stroke-width:0.26458332;stroke-opacity:1"
       y="-229.65674"
       x="137.71773"
       height="35"
       width="35"
       id="rect4827"
       transform="rotate(90)" />
    <rect
       id="rect4829"
       width="35"
       height="35"
       x="137.71773"
       y="-194.65674"
       style="fill:#ffffff;fill-opacity:1;stroke:#000000;stroke-width:0.26458332;stroke-opacity:1"
       transform="rotate(90)" />
    <rect
       id="rect4831"
       width="35"
       height="35"
       x="172.71774"
       y="-194.65674"
       style="stroke:#000000;stroke-width:0.26458332;stroke-opacity:1"
       transform="rotate(90)" />
    <rect
       style="fill:#fffffb;fill-opacity:1;stroke:#000000;stroke-width:0.26458332;stroke-opacity:1"
       y="-229.65674"
       x="172.71774"
       height="35"
       width="35"
       id="rect4833"
       transform="rotate(90)" />
    <rect
       style="stroke:#000000;stroke-width:0.26458332;stroke-opacity:1"
       y="-159.39215"
       x="137.71773"
       height="35"
       width="35"
       id="rect4837"
       transform="rotate(90)" />
    <rect
       id="rect4839"
       width="35"
       height="35"
       x="137.71773"
       y="-124.39214"
       style="fill:#ffffff;fill-opacity:1;stroke:#000000;stroke-width:0.26458332;stroke-opacity:1"
       transform="rotate(90)" />
    <rect
       id="rect4841"
       width="35"
       height="35"
       x="172.71774"
       y="-124.39214"
       style="stroke:#000000;stroke-width:0.26458332;stroke-opacity:1"
       transform="rotate(90)" />
    <rect
       style="fill:#fffffb;fill-opacity:1;stroke:#000000;stroke-width:0.26458332;stroke-opacity:1"
       y="-159.39215"
       x="172.71774"
       height="35"
       width="35"
       id="rect4843"
       transform="rotate(90)" />
    <rect
       style="stroke:#000000;stroke-width:0.26458332;stroke-opacity:1"
       y="-89.127556"
       x="137.71773"
       height="35"
       width="35"
       id="rect4847"
       transform="rotate(90)" />
    <rect
       id="rect4849"
       width="35"
       height="35"
       x="137.71773"
       y="-54.127556"
       style="fill:#ffffff;fill-opacity:1;stroke:#000000;stroke-width:0.26458332;stroke-opacity:1"
       transform="rotate(90)" />
    <rect
       id="rect4851"
       width="35"
       height="35"
       x="172.71774"
       y="-54.127556"
       style="stroke:#000000;stroke-width:0.26458332;stroke-opacity:1"
       transform="rotate(90)" />
    <rect
       style="fill:#fffffb;fill-opacity:1;stroke:#000000;stroke-width:0.26458332;stroke-opacity:1"
       y="-89.127556"
       x="172.71774"
       height="35"
       width="35"
       id="rect4853"
       transform="rotate(90)" />
    <rect
       style="stroke:#000000;stroke-width:0.26458332;stroke-opacity:1"
       y="-580.97961"
       x="207.98232"
       height="35"
       width="35"
       id="rect4857"
       transform="rotate(90)" />
    <rect
       id="rect4859"
       width="35"
       height="35"
       x="207.98232"
       y="-545.97961"
       style="fill:#ffffff;fill-opacity:1;stroke:#000000;stroke-width:0.26458332;stroke-opacity:1"
       transform="rotate(90)" />
    <rect
       id="rect4861"
       width="35"
       height="35"
       x="242.98233"
       y="-545.97961"
       style="stroke:#000000;stroke-width:0.26458332;stroke-opacity:1"
       transform="rotate(90)" />
    <rect
       style="fill:#fffffb;fill-opacity:1;stroke:#000000;stroke-width:0.26458332;stroke-opacity:1"
       y="-580.97961"
       x="242.98233"
       height="35"
       width="35"
       id="rect4863"
       transform="rotate(90)" />
    <rect
       style="stroke:#000000;stroke-width:0.26458332;stroke-opacity:1"
       y="-510.71506"
       x="207.98232"
       height="35"
       width="35"
       id="rect4867"
       transform="rotate(90)" />
    <rect
       id="rect4869"
       width="35"
       height="35"
       x="207.98232"
       y="-475.71506"
       style="fill:#ffffff;fill-opacity:1;stroke:#000000;stroke-width:0.26458332;stroke-opacity:1"
       transform="rotate(90)" />
    <rect
       id="rect4871"
       width="35"
       height="35"
       x="242.98233"
       y="-475.71506"
       style="stroke:#000000;stroke-width:0.26458332;stroke-opacity:1"
       transform="rotate(90)" />
    <rect
       style="fill:#fffffb;fill-opacity:1;stroke:#000000;stroke-width:0.26458332;stroke-opacity:1"
       y="-510.71506"
       x="242.98233"
       height="35"
       width="35"
       id="rect4873"
       transform="rotate(90)" />
    <rect
       style="stroke:#000000;stroke-width:0.26458332;stroke-opacity:1"
       y="-440.45047"
       x="207.98232"
       height="35"
       width="35"
       id="rect4877"
       transform="rotate(90)" />
    <rect
       id="rect4879"
       width="35"
       height="35"
       x="207.98232"
       y="-405.45047"
       style="fill:#ffffff;fill-opacity:1;stroke:#000000;stroke-width:0.26458332;stroke-opacity:1"
       transform="rotate(90)" />
    <rect
       id="rect4881"
       width="35"
       height="35"
       x="242.98233"
       y="-405.45047"
       style="stroke:#000000;stroke-width:0.26458332;stroke-opacity:1"
       transform="rotate(90)" />
    <rect
       style="fill:#fffffb;fill-opacity:1;stroke:#000000;stroke-width:0.26458332;stroke-opacity:1"
       y="-440.45047"
       x="242.98233"
       height="35"
       width="35"
       id="rect4883"
       transform="rotate(90)" />
    <rect
       style="stroke:#000000;stroke-width:0.26458332;stroke-opacity:1"
       y="-370.18588"
       x="207.98232"
       height="35"
       width="35"
       id="rect4887"
       transform="rotate(90)" />
    <rect
       id="rect4889"
       width="35"
       height="35"
       x="207.98232"
       y="-335.18588"
       style="fill:#ffffff;fill-opacity:1;stroke:#000000;stroke-width:0.26458332;stroke-opacity:1"
       transform="rotate(90)" />
    <rect
       id="rect4891"
       width="35"
       height="35"
       x="242.98233"
       y="-335.18588"
       style="stroke:#000000;stroke-width:0.26458332;stroke-opacity:1"
       transform="rotate(90)" />
    <rect
       style="fill:#fffffb;fill-opacity:1;stroke:#000000;stroke-width:0.26458332;stroke-opacity:1"
       y="-370.18588"
       x="242.98233"
       height="35"
       width="35"
       id="rect4893"
       transform="rotate(90)" />
    <rect
       style="stroke:#000000;stroke-width:0.26458332;stroke-opacity:1"
       y="-299.9213"
       x="207.98232"
       height="35"
       width="35"
       id="rect4897"
       transform="rotate(90)" />
    <rect
       id="rect4899"
       width="35"
       height="35"
       x="207.98232"
       y="-264.9213"
       style="fill:#ffffff;fill-opacity:1;stroke:#000000;stroke-width:0.26458332;stroke-opacity:1"
       transform="rotate(90)" />
    <rect
       id="rect4901"
       width="35"
       height="35"
       x="242.98233"
       y="-264.9213"
       style="stroke:#000000;stroke-width:0.26458332;stroke-opacity:1"
       transform="rotate(90)" />
    <rect
       style="fill:#fffffb;fill-opacity:1;stroke:#000000;stroke-width:0.26458332;stroke-opacity:1"
       y="-299.9213"
       x="242.98233"
       height="35"
       width="35"
       id="rect4903"
       transform="rotate(90)" />
    <rect
       style="stroke:#000000;stroke-width:0.26458332;stroke-opacity:1"
       y="-229.65674"
       x="207.98232"
       height="35"
       width="35"
       id="rect4907"
       transform="rotate(90)" />
    <rect
       id="rect4909"
       width="35"
       height="35"
       x="207.98232"
       y="-194.65674"
       style="fill:#ffffff;fill-opacity:1;stroke:#000000;stroke-width:0.26458332;stroke-opacity:1"
       transform="rotate(90)" />
    <rect
       id="rect4911"
       width="35"
       height="35"
       x="242.98233"
       y="-194.65674"
       style="stroke:#000000;stroke-width:0.26458332;stroke-opacity:1"
       transform="rotate(90)" />
    <rect
       style="fill:#fffffb;fill-opacity:1;stroke:#000000;stroke-width:0.26458332;stroke-opacity:1"
       y="-229.65674"
       x="242.98233"
       height="35"
       width="35"
       id="rect4913"
       transform="rotate(90)" />
    <rect
       style="stroke:#000000;stroke-width:0.26458332;stroke-opacity:1"
       y="-159.39215"
       x="207.98232"
       height="35"
       width="35"
       id="rect4917"
       transform="rotate(90)" />
    <rect
       id="rect4919"
       width="35"
       height="35"
       x="207.98232"
       y="-124.39214"
       style="fill:#ffffff;fill-opacity:1;stroke:#000000;stroke-width:0.26458332;stroke-opacity:1"
       transform="rotate(90)" />
    <rect
       id="rect4921"
       width="35"
       height="35"
       x="242.98233"
       y="-124.39214"
       style="stroke:#000000;stroke-width:0.26458332;stroke-opacity:1"
       transform="rotate(90)" />
    <rect
       style="fill:#fffffb;fill-opacity:1;stroke:#000000;stroke-width:0.26458332;stroke-opacity:1"
       y="-159.39215"
       x="242.98233"
       height="35"
       width="35"
       id="rect4923"
       transform="rotate(90)" />
    <rect
       style="stroke:#000000;stroke-width:0.26458332;stroke-opacity:1"
       y="-89.127556"
       x="207.98232"
       height="35"
       width="35"
       id="rect4927"
       transform="rotate(90)" />
    <rect
       id="rect4929"
       width="35"
       height="35"
       x="207.98232"
       y="-54.127556"
       style="fill:#ffffff;fill-opacity:1;stroke:#000000;stroke-width:0.26458332;stroke-opacity:1"
       transform="rotate(90)" />
    <rect
       id="rect4931"
       width="35"
       height="35"
       x="242.98233"
       y="-54.127556"
       style="stroke:#000000;stroke-width:0.26458332;stroke-opacity:1"
       transform="rotate(90)" />
    <rect
       style="fill:#fffffb;fill-opacity:1;stroke:#000000;stroke-width:0.26458332;stroke-opacity:1"
       y="-89.127556"
       x="242.98233"
       height="35"
       width="35"
       id="rect4933"
       transform="rotate(90)" />
  </g>
</svg>
